<?xml version="1.0" standalone="yes"?>
<svg xmlns="http://www.w3.org/2000/svg" width="500" height="500">
<path style="fill:#fefefe; stroke:none;" d="M0 0L0 500L500 500L500 0L0 0z"/>
<path style="fill:#bbc2d4; stroke:none;" d="M139 60L139 61L149 61L139 60z"/>
<path style="fill:#708df2; stroke:none;" d="M149 60L149 61L164 61L149 60z"/>
<path style="fill:#4359f6; stroke:none;" d="M112 69L103 73L101 72L88 84C81.4356 84.6357 78.3498 93.0883 74.8611 98C60.7271 117.9 63.097 138.231 60.8657 161C57.8704 191.566 60 223.258 60 254C60 284.742 57.8704 316.433 60.8657 347C63.3675 372.529 65.1801 395.656 85.0046 414.981C121.034 450.103 184.196 440 230 440L317 440C350.452 440 383.613 439.605 411 417.681C434.049 399.229 435.566 371.513 439.412 345C442.91 320.882 440 294.383 440 270L440 182C440 148.608 439.559 115.32 417.681 88C399.636 65.4688 373.068 63.4202 347 60.8657C294.578 55.7287 239.717 60 187 60C168.174 60 148.489 59.6335 130 62.7222C125.706 63.4396 112.785 63.9384 112 69z"/>
<path style="fill:#708df2; stroke:none;" d="M344 60L344 61L350 61L344 60z"/>
<path style="fill:#bbc2d4; stroke:none;" d="M350 60L350 61L360 61L350 60M131 61L132 62L131 61z"/>
<path style="fill:#708df2; stroke:none;" d="M132 61L132 62L135 62L132 61M365.667 61.3333L366.333 61.6667L365.667 61.3333z"/>
<path style="fill:#bbc2d4; stroke:none;" d="M367 61L368 62L367 61M126 62L127 63L126 62z"/>
<path style="fill:#7d89b7; stroke:none;" d="M127 62L127 63L132 63L127 62M371 62L372 63L371 62z"/>
<path style="fill:#bbc2d4; stroke:none;" d="M372 62L373 63L372 62M121 63L122 64L121 63z"/>
<path style="fill:#708df2; stroke:none;" d="M122 63L123 64L122 63M376 63L377 64L376 63z"/>
<path style="fill:#bbc2d4; stroke:none;" d="M377 63L378 64L377 63M117 64L118 65L117 64z"/>
<path style="fill:#7d89b7; stroke:none;" d="M118.667 64.3333L119.333 64.6667L118.667 64.3333z"/>
<path style="fill:#708df2; stroke:none;" d="M120.667 64.3333L121.333 64.6667L120.667 64.3333z"/>
<path style="fill:#7d89b7; stroke:none;" d="M379.667 64.3333L380.333 64.6667L379.667 64.3333z"/>
<path style="fill:#bbc2d4; stroke:none;" d="M381 64L382 65L381 64M115 65L116 66L115 65M383 65L384 66L383 65M112 66L113 67L112 66z"/>
<path style="fill:#7d89b7; stroke:none;" d="M113.667 66.3333L114.333 66.6667L113.667 66.3333M385 66L386 67L385 66z"/>
<path style="fill:#bbc2d4; stroke:none;" d="M386 66L387 67L386 66M110 67L111 68L110 67M388 67L389 68L388 67z"/>
<path style="fill:#7d89b7; stroke:none;" d="M108 68L109 69L108 68M110 68L111 69L110 68z"/>
<path style="fill:#708df2; stroke:none;" d="M111 68L112 69L111 68z"/>
<path style="fill:#7d89b7; stroke:none;" d="M390 68L391 69L390 68z"/>
<path style="fill:#bbc2d4; stroke:none;" d="M105 69L106 70L105 69z"/>
<path style="fill:#708df2; stroke:none;" d="M106 69L107 70L106 69M392 69L393 70L392 69z"/>
<path style="fill:#bbc2d4; stroke:none;" d="M393 69L394 70L393 69z"/>
<path style="fill:#7d89b7; stroke:none;" d="M104 70L105 71L104 70z"/>
<path style="fill:#708df2; stroke:none;" d="M105 70L106 71L105 70M111 70L112 71L111 70z"/>
<path style="fill:#7d89b7; stroke:none;" d="M394 70L395 71L394 70z"/>
<path style="fill:#708df2; stroke:none;" d="M102.333 71.6667L102.667 72.3333L102.333 71.6667M396 71L397 72L396 71z"/>
<path style="fill:#bbc2d4; stroke:none;" d="M100 72L101 73L100 72M398 72L399 73L398 72M98 73L95 77L98 73z"/>
<path style="fill:#708df2; stroke:none;" d="M99.6667 73.3333L100.333 73.6667L99.6667 73.3333M104 73L103 75L104 73z"/>
<path style="fill:#bbc2d4; stroke:none;" d="M400 73L401 74L400 73z"/>
<path style="fill:#7d89b7; stroke:none;" d="M98 74L99 75L98 74z"/>
<path style="fill:#708df2; stroke:none;" d="M106 74L107 75L106 74z"/>
<path style="fill:#bbc2d4; stroke:none;" d="M401 74L402 75L401 74z"/>
<path style="fill:#708df2; stroke:none;" d="M97 75L98 76L97 75z"/>
<path style="fill:#bbc2d4; stroke:none;" d="M402 75L403 76L402 75z"/>
<path style="fill:#708df2; stroke:none;" d="M96 76L97 77L96 76z"/>
<path style="fill:#7d89b7; stroke:none;" d="M403 76L404 77L403 76z"/>
<path style="fill:#708df2; stroke:none;" d="M94 77L95 78L94 77z"/>
<path style="fill:#bbc2d4; stroke:none;" d="M91 78L92 79L91 78z"/>
<path style="fill:#708df2; stroke:none;" d="M92.6667 78.3333L93.3333 78.6667L92.6667 78.3333M406 78L407 79L406 78z"/>
<path style="fill:#bbc2d4; stroke:none;" d="M407 78L408 79L407 78z"/>
<path style="fill:#708df2; stroke:none;" d="M90 79L91 80L90 79M408 79L409 80L408 79M88 81L89 82L88 81z"/>
<path style="fill:#bbc2d4; stroke:none;" d="M86 82L87 83L86 82z"/>
<path style="fill:#708df2; stroke:none;" d="M87.3333 82.6667L87.6667 83.3333L87.3333 82.6667z"/>
<path style="fill:#bbc2d4; stroke:none;" d="M412 82L413 83L412 82M84 84L85 85L84 84M414 84L415 85L414 84M82 86L83 87L82 86M416 86L417 87L416 86z"/>
<path style="fill:#708df2; stroke:none;" d="M83 87L84 88L83 87M81 88L82 89L81 88M79 90L80 91L79 90M419 90L420 91L419 90z"/>
<path style="fill:#bbc2d4; stroke:none;" d="M78 91L79 92L78 91M420 91L421 92L420 91z"/>
<path style="fill:#708df2; stroke:none;" d="M78 92L79 93L78 92M420 92L421 93L420 92M77 94L78 95L77 94z"/>
<path style="fill:#bbc2d4; stroke:none;" d="M76 95L77 96L76 95z"/>
<path style="fill:#7d89b7; stroke:none;" d="M422 95L423 96L422 95z"/>
<path style="fill:#bbc2d4; stroke:none;" d="M75 96L73 99L75 96M423 96L424 97L423 96z"/>
<path style="fill:#708df2; stroke:none;" d="M75 97L76 98L75 97z"/>
<path style="fill:#bbc2d4; stroke:none;" d="M424 97L425 98L424 97z"/>
<path style="fill:#7d89b7; stroke:none;" d="M74 98L75 99L74 98z"/>
<path style="fill:#bbc2d4; stroke:none;" d="M425 98L426 99L425 98z"/>
<path style="fill:#708df2; stroke:none;" d="M73 99L74 100L73 99z"/>
<path style="fill:#bbc2d4; stroke:none;" d="M72 100L73 101L72 100M426 100L427 101L426 100z"/>
<path style="fill:#708df2; stroke:none;" d="M72 101L73 102L72 101M71 102L72 103L71 102M427 102L428 103L427 102z"/>
<path style="fill:#7d89b7; stroke:none;" d="M70 104L71 105L70 104M428 104L429 105L428 104z"/>
<path style="fill:#bbc2d4; stroke:none;" d="M429 105L430 106L429 105z"/>
<path style="fill:#708df2; stroke:none;" d="M69 106L70 107L69 106M74 106L75 107L74 106M429 106L430 107L429 106z"/>
<path style="fill:#7d89b7; stroke:none;" d="M68 108L68 111L69 111L68 108z"/>
<path style="fill:#708df2; stroke:none;" d="M73 108L74 109L73 108z"/>
<path style="fill:#7d89b7; stroke:none;" d="M430 108L431 109L430 108z"/>
<path style="fill:#bbc2d4; stroke:none;" d="M67 110L68 111L67 110M431 110L432 111L431 110M66 112L67 113L66 112M432 112L433 113L432 112z"/>
<path style="fill:#7d89b7; stroke:none;" d="M66.3333 113.667L66.6667 114.333L66.3333 113.667M432 113L433 114L432 113z"/>
<path style="fill:#bbc2d4; stroke:none;" d="M65 115L66 116L65 115M433 115L434 116L433 115z"/>
<path style="fill:#708df2; stroke:none;" d="M65 116L66 117L65 116z"/>
<path style="fill:#bbc2d4; stroke:none;" d="M64 117L65 118L64 117M434 117L435 118L434 117z"/>
<path style="fill:#7d89b7; stroke:none;" d="M64.3333 118.667L64.6667 119.333L64.3333 118.667M434 118L435 119L434 118z"/>
<path style="fill:#bbc2d4; stroke:none;" d="M63 121L64 122L63 121z"/>
<path style="fill:#708df2; stroke:none;" d="M64 121L65 122L64 121z"/>
<path style="fill:#bbc2d4; stroke:none;" d="M435 121L436 122L435 121z"/>
<path style="fill:#708df2; stroke:none;" d="M63 122L64 123L63 122M435 122L436 123L435 122M251 125L251 126L257 126L251 125z"/>
<path style="fill:#bbc2d4; stroke:none;" d="M185 347L185 346C179.616 342.605 173.22 337.587 172 331L167 329L164 325L165 323C152.504 310.61 148.192 286.715 145.87 270C134.852 190.714 204.662 125.346 282 132.83C300.192 134.591 324.117 136.407 338 150L350 155L353 160L359 163C356.15 157.665 350.562 154.65 346 150.856C330.502 137.966 311.678 131.131 292 127.576C234.426 117.173 173.896 141.931 149.439 197C132.719 234.648 135.303 274.607 153.63 311C160.096 323.838 171.256 341.19 185 347z"/>
<path style="fill:#708df2; stroke:none;" d="M272 125L272 126L279 126L272 125z"/>
<path style="fill:#bbc2d4; stroke:none;" d="M436.333 125.667L436.667 126.333L436.333 125.667M62 126L63 127L62 126z"/>
<path style="fill:#7d89b7; stroke:none;" d="M243 126L243 127L246 127L243 126M286.667 126.333L287.333 126.667L286.667 126.333M62 127L62 130L63 130L62 127z"/>
<path style="fill:#708df2; stroke:none;" d="M237 127L237 128L240 128L237 127M291.667 127.333L292.333 127.667L291.667 127.333z"/>
<path style="fill:#7d89b7; stroke:none;" d="M436 127L437 128L436 127M232.667 128.333L233.333 128.667L232.667 128.333M297.667 128.333L298.333 128.667L297.667 128.333z"/>
<path style="fill:#708df2; stroke:none;" d="M230 129L231 130L230 129M301.667 129.333L302.333 129.667L301.667 129.333z"/>
<path style="fill:#7d89b7; stroke:none;" d="M225.667 130.333L226.333 130.667L225.667 130.333M305.667 130.333L306.333 130.667L305.667 130.333z"/>
<path style="fill:#bbc2d4; stroke:none;" d="M61 131L62 132L61 131z"/>
<path style="fill:#708df2; stroke:none;" d="M223.667 131.333L224.333 131.667L223.667 131.333M308 131L309 132L308 131z"/>
<path style="fill:#bbc2d4; stroke:none;" d="M437 131L438 132L437 131z"/>
<path style="fill:#708df2; stroke:none;" d="M61.3333 132.667L61.6667 133.333L61.3333 132.667z"/>
<path style="fill:#7d89b7; stroke:none;" d="M219.667 132.333L220.333 132.667L219.667 132.333z"/>
<path style="fill:#fefefe; stroke:none;" d="M165 323L164 325L167 329L172 331C172.551 337.58 178.762 342.373 183.725 346.204C194.462 354.493 204.162 360.775 217 365.414C254.762 379.057 302.611 376.843 336 352.845C344.342 346.849 355.581 339.477 360 330C351.988 324.391 341.339 305.965 330.91 307.203C322.674 308.18 313.444 318.96 306 322.971C288.57 332.362 253.341 337.275 237 323L234 324C233.12 317.742 217.175 308.778 212.782 303.407C201.633 289.777 194.84 272.404 193.134 255C189.155 214.393 222.225 173.12 264 173.12C286.52 173.12 308.673 185.355 325 200L326 200C334.129 190.044 343.073 180.287 351.844 170.91C354.863 167.683 359.924 161.348 353 160L350 155L338 150C327.905 135.068 297.817 134.587 282 132.715C209.465 124.128 145 180.936 145 254C145 271.353 148.464 286.65 153.996 303C156.236 309.62 158.917 318.96 165 323z"/>
<path style="fill:#7d89b7; stroke:none;" d="M311 132L312 133L311 132z"/>
<path style="fill:#708df2; stroke:none;" d="M437 132L438 133L437 132M217 133L218 134L217 133M314 133L315 134L314 133z"/>
<path style="fill:#7d89b7; stroke:none;" d="M214.667 134.333L215.333 134.667L214.667 134.333M317 134L318 135L317 134z"/>
<path style="fill:#708df2; stroke:none;" d="M211.667 135.333L212.333 135.667L211.667 135.333M319.667 135.333L320.333 135.667L319.667 135.333z"/>
<path style="fill:#7d89b7; stroke:none;" d="M321 135L322 136L321 135z"/>
<path style="fill:#708df2; stroke:none;" d="M209 136L210 137L209 136z"/>
<path style="fill:#7d89b7; stroke:none;" d="M206 137L207 138L206 137M325 137L326 138L325 137z"/>
<path style="fill:#bbc2d4; stroke:none;" d="M438 137L438 140L439 140L438 137z"/>
<path style="fill:#708df2; stroke:none;" d="M204 138L205 139L204 138z"/>
<path style="fill:#bbc2d4; stroke:none;" d="M60 139L60 149L61 149L60 139z"/>
<path style="fill:#7d89b7; stroke:none;" d="M202 139L203 140L202 139z"/>
<path style="fill:#708df2; stroke:none;" d="M200 140L201 141L200 140M330 140L331 141L330 140z"/>
<path style="fill:#7d89b7; stroke:none;" d="M438.333 140.667L438.667 141.333L438.333 140.667M332 141L333 142L332 141z"/>
<path style="fill:#708df2; stroke:none;" d="M197 142L198 143L197 142M334 142L335 143L334 142M194 144L195 145L194 144M337 144L338 145L337 144z"/>
<path style="fill:#7d89b7; stroke:none;" d="M192 145L193 146L192 145z"/>
<path style="fill:#708df2; stroke:none;" d="M340 146L341 147L340 146M190 147L191 148L190 147M189 148L190 149L189 148M60 149L60 164L61 164L60 149z"/>
<path style="fill:#7d89b7; stroke:none;" d="M187 149L188 150L187 149M344 149L345 150L344 149z"/>
<path style="fill:#bbc2d4; stroke:none;" d="M439 149L439 152L440 152L439 149z"/>
<path style="fill:#708df2; stroke:none;" d="M186 150L187 151L186 150z"/>
<path style="fill:#7d89b7; stroke:none;" d="M347 152L348 153L347 152z"/>
<path style="fill:#708df2; stroke:none;" d="M439 152L439 157L440 157L439 152z"/>
<path style="fill:#7d89b7; stroke:none;" d="M182 153L183 154L182 153z"/>
<path style="fill:#708df2; stroke:none;" d="M180 154L181 155L180 154z"/>
<path style="fill:#7d89b7; stroke:none;" d="M181 154L182 155L181 154z"/>
<path style="fill:#708df2; stroke:none;" d="M350 154L351 155L350 154z"/>
<path style="fill:#7d89b7; stroke:none;" d="M177 156L178 157L177 156M353 156L354 157L353 156z"/>
<path style="fill:#708df2; stroke:none;" d="M354 157L355 158L354 157z"/>
<path style="fill:#7d89b7; stroke:none;" d="M175 158L176 159L175 158M355 158L356 159L355 158z"/>
<path style="fill:#708df2; stroke:none;" d="M356 159L357 160L356 159M173 161L174 162L173 161z"/>
<path style="fill:#7d89b7; stroke:none;" d="M172 162L173 163L172 162z"/>
<path style="fill:#708df2; stroke:none;" d="M358 163L359 164L358 163z"/>
<path style="fill:#7d89b7; stroke:none;" d="M170 164L171 165L170 164z"/>
<path style="fill:#708df2; stroke:none;" d="M357 164L358 165L357 164M356 165L357 166L356 165z"/>
<path style="fill:#bbc2d4; stroke:none;" d="M355 166L356 167L355 166z"/>
<path style="fill:#708df2; stroke:none;" d="M168 167L169 168L168 167z"/>
<path style="fill:#bbc2d4; stroke:none;" d="M354 167L355 168L354 167z"/>
<path style="fill:#708df2; stroke:none;" d="M167 168L168 169L167 168z"/>
<path style="fill:#7d89b7; stroke:none;" d="M166 169L167 170L166 169z"/>
<path style="fill:#708df2; stroke:none;" d="M165.333 170.667L165.667 171.333L165.333 170.667z"/>
<path style="fill:#7d89b7; stroke:none;" d="M351 171L352 172L351 171z"/>
<path style="fill:#708df2; stroke:none;" d="M350 172L351 173L350 172z"/>
<path style="fill:#7d89b7; stroke:none;" d="M162 173L163 174L162 173z"/>
<path style="fill:#708df2; stroke:none;" d="M163 173L164 174L163 173z"/>
<path style="fill:#bbc2d4; stroke:none;" d="M260 173L260 174L268 174L260 173z"/>
<path style="fill:#7d89b7; stroke:none;" d="M349 173L350 174L349 173z"/>
<path style="fill:#bbc2d4; stroke:none;" d="M250.667 174.333L251.333 174.667L250.667 174.333z"/>
<path style="fill:#7d89b7; stroke:none;" d="M252.667 174.333L253.333 174.667L252.667 174.333M274.667 174.333L275.333 174.667L274.667 174.333z"/>
<path style="fill:#bbc2d4; stroke:none;" d="M276.667 174.333L277.333 174.667L276.667 174.333M347 174L348 175L347 174z"/>
<path style="fill:#708df2; stroke:none;" d="M161 175L162 176L161 175z"/>
<path style="fill:#bbc2d4; stroke:none;" d="M247 175L248 176L247 175z"/>
<path style="fill:#708df2; stroke:none;" d="M248 175L249 176L248 175M280 175L281 176L280 175z"/>
<path style="fill:#bbc2d4; stroke:none;" d="M281 175L282 176L281 175z"/>
<path style="fill:#708df2; stroke:none;" d="M160 176L161 177L160 176z"/>
<path style="fill:#bbc2d4; stroke:none;" d="M243 176L244 177L243 176z"/>
<path style="fill:#7d89b7; stroke:none;" d="M244 176L245 177L244 176M284 176L285 177L284 176z"/>
<path style="fill:#bbc2d4; stroke:none;" d="M285 176L286 177L285 176M240 177L241 178L240 177z"/>
<path style="fill:#708df2; stroke:none;" d="M287 177L288 178L287 177z"/>
<path style="fill:#7d89b7; stroke:none;" d="M238 178L239 179L238 178M289 178L290 179L289 178z"/>
<path style="fill:#bbc2d4; stroke:none;" d="M290 178L291 179L290 178M344 178L345 179L344 178z"/>
<path style="fill:#7d89b7; stroke:none;" d="M158 179L159 180L158 179z"/>
<path style="fill:#bbc2d4; stroke:none;" d="M235 179L236 180L235 179z"/>
<path style="fill:#708df2; stroke:none;" d="M292 179L293 180L292 179z"/>
<path style="fill:#bbc2d4; stroke:none;" d="M293 179L294 180L293 179z"/>
<path style="fill:#708df2; stroke:none;" d="M344 179L345 180L344 179z"/>
<path style="fill:#bbc2d4; stroke:none;" d="M233 180L234 181L233 180M295 180L296 181L295 180M343 180L344 181L343 180M231 181L232 182L231 181M297 181L298 182L297 181M342 181L343 182L342 181z"/>
<path style="fill:#7d89b7; stroke:none;" d="M156 182L157 183L156 182M230 182L231 183L230 182z"/>
<path style="fill:#bbc2d4; stroke:none;" d="M299 182L300 183L299 182z"/>
<path style="fill:#708df2; stroke:none;" d="M229 183L230 184L229 183z"/>
<path style="fill:#bbc2d4; stroke:none;" d="M301 183L302 184L301 183z"/>
<path style="fill:#708df2; stroke:none;" d="M155 184L156 185L155 184z"/>
<path style="fill:#bbc2d4; stroke:none;" d="M227 184L228 185L227 184M303 184L304 185L303 184z"/>
<path style="fill:#708df2; stroke:none;" d="M304 185L305 186L304 185z"/>
<path style="fill:#bbc2d4; stroke:none;" d="M305 185L306 186L305 185z"/>
<path style="fill:#708df2; stroke:none;" d="M339 185L340 186L339 185M154 186L155 187L154 186z"/>
<path style="fill:#bbc2d4; stroke:none;" d="M224 186L225 187L224 186M306 186L307 187L306 186z"/>
<path style="fill:#7d89b7; stroke:none;" d="M338 186L339 187L338 186M154 187L155 188L154 187z"/>
<path style="fill:#bbc2d4; stroke:none;" d="M307 187L308 188L307 187z"/>
<path style="fill:#708df2; stroke:none;" d="M337 187L338 188L337 187z"/>
<path style="fill:#bbc2d4; stroke:none;" d="M221 188L222 189L221 188z"/>
<path style="fill:#7d89b7; stroke:none;" d="M308 188L309 189L308 188z"/>
<path style="fill:#bbc2d4; stroke:none;" d="M336 188L337 189L336 188z"/>
<path style="fill:#7d89b7; stroke:none;" d="M153 189L154 190L153 189z"/>
<path style="fill:#bbc2d4; stroke:none;" d="M220 189L221 190L220 189M310 189L311 190L310 189M335 189L336 190L335 189z"/>
<path style="fill:#708df2; stroke:none;" d="M219 190L220 191L219 190z"/>
<path style="fill:#7d89b7; stroke:none;" d="M220 190L221 191L220 190M311 190L312 191L311 190z"/>
<path style="fill:#708df2; stroke:none;" d="M152 191L153 192L152 191z"/>
<path style="fill:#bbc2d4; stroke:none;" d="M313 191L314 192L313 191z"/>
<path style="fill:#7d89b7; stroke:none;" d="M151 192L152 193L151 192z"/>
<path style="fill:#bbc2d4; stroke:none;" d="M216 192L217 193L216 192z"/>
<path style="fill:#7d89b7; stroke:none;" d="M314 192L315 193L314 192z"/>
<path style="fill:#bbc2d4; stroke:none;" d="M315 192L316 193L315 192M332 192L333 193L332 192z"/>
<path style="fill:#7d89b7; stroke:none;" d="M316 193L317 194L316 193z"/>
<path style="fill:#bbc2d4; stroke:none;" d="M317 193L318 194L317 193z"/>
<path style="fill:#708df2; stroke:none;" d="M331 193L332 194L331 193M150 194L151 195L150 194z"/>
<path style="fill:#bbc2d4; stroke:none;" d="M318 194L320 196L320 194L318 194M330 194L331 195L330 194M329 195L330 196L329 195z"/>
<path style="fill:#7d89b7; stroke:none;" d="M149 196L150 197L149 196z"/>
<path style="fill:#708df2; stroke:none;" d="M212 196L213 197L212 196M320 196L321 197L320 196z"/>
<path style="fill:#bbc2d4; stroke:none;" d="M321 196L322 197L321 196M328 196L329 197L328 196M211 197L212 198L211 197z"/>
<path style="fill:#7d89b7; stroke:none;" d="M321 197L322 198L321 197z"/>
<path style="fill:#708df2; stroke:none;" d="M148.333 198.667L148.667 199.333L148.333 198.667M211 198L212 199L211 198z"/>
<path style="fill:#bbc2d4; stroke:none;" d="M323 198L324 199L323 198M210 199L211 200L210 199M324 199L325 200L324 199z"/>
<path style="fill:#7d89b7; stroke:none;" d="M326 199L327 200L326 199M147.333 200.667L147.667 201.333L147.333 200.667z"/>
<path style="fill:#708df2; stroke:none;" d="M325 200L326 201L325 200z"/>
<path style="fill:#7d89b7; stroke:none;" d="M209 201L210 202L209 201z"/>
<path style="fill:#708df2; stroke:none;" d="M208 202L209 203L208 202M146.333 203.667L146.667 204.333L146.333 203.667z"/>
<path style="fill:#bbc2d4; stroke:none;" d="M207 203L208 204L207 203z"/>
<path style="fill:#708df2; stroke:none;" d="M206 205L207 206L206 205z"/>
<path style="fill:#7d89b7; stroke:none;" d="M145 206L146 207L145 206z"/>
<path style="fill:#bbc2d4; stroke:none;" d="M205 206L206 207L205 206z"/>
<path style="fill:#7d89b7; stroke:none;" d="M205 207L206 208L205 207z"/>
<path style="fill:#bbc2d4; stroke:none;" d="M204 208L205 209L204 208z"/>
<path style="fill:#708df2; stroke:none;" d="M144 209L145 210L144 209z"/>
<path style="fill:#7d89b7; stroke:none;" d="M203 210L204 211L203 210M143 211L144 212L143 211z"/>
<path style="fill:#bbc2d4; stroke:none;" d="M202 211L203 212L202 211z"/>
<path style="fill:#7d89b7; stroke:none;" d="M201 213L202 214L201 213z"/>
<path style="fill:#708df2; stroke:none;" d="M142.333 214.667L142.667 215.333L142.333 214.667M200 215L201 216L200 215z"/>
<path style="fill:#bbc2d4; stroke:none;" d="M199 217L200 218L199 217z"/>
<path style="fill:#7d89b7; stroke:none;" d="M141 218L142 219L141 218z"/>
<path style="fill:#bbc2d4; stroke:none;" d="M198 219L199 220L198 219z"/>
<path style="fill:#708df2; stroke:none;" d="M198 220L199 221L198 220M140.333 223.667L140.667 224.333L140.333 223.667z"/>
<path style="fill:#7d89b7; stroke:none;" d="M197 223L198 224L197 223z"/>
<path style="fill:#bbc2d4; stroke:none;" d="M196.333 225.667L196.667 226.333L196.333 225.667z"/>
<path style="fill:#7d89b7; stroke:none;" d="M139.333 228.667L139.667 229.333L139.333 228.667z"/>
<path style="fill:#bbc2d4; stroke:none;" d="M195 229L196 230L195 229z"/>
<path style="fill:#7d89b7; stroke:none;" d="M195 230L196 231L195 230z"/>
<path style="fill:#bbc2d4; stroke:none;" d="M194.333 232.667L194.667 233.333L194.333 232.667z"/>
<path style="fill:#708df2; stroke:none;" d="M138 234L138 238L139 238L138 234M194.333 234.667L194.667 235.333L194.333 234.667z"/>
<path style="fill:#bbc2d4; stroke:none;" d="M193.333 240.667L193.667 241.333L193.333 240.667z"/>
<path style="fill:#7d89b7; stroke:none;" d="M193 242L193 256L194 256L193 242z"/>
<path style="fill:#bbc2d4; stroke:none;" d="M193.333 256.667L193.667 257.333L193.333 256.667z"/>
<path style="fill:#708df2; stroke:none;" d="M138 262L138 266L139 266L138 262M194 263L195 264L194 263z"/>
<path style="fill:#bbc2d4; stroke:none;" d="M194.333 264.667L194.667 265.333L194.333 264.667z"/>
<path style="fill:#7d89b7; stroke:none;" d="M195 268L196 269L195 268M139.333 270.667L139.667 271.333L139.333 270.667z"/>
<path style="fill:#708df2; stroke:none;" d="M196 271L197 272L196 271z"/>
<path style="fill:#bbc2d4; stroke:none;" d="M196 272L197 273L196 272z"/>
<path style="fill:#708df2; stroke:none;" d="M140.333 275.667L140.667 276.333L140.333 275.667z"/>
<path style="fill:#bbc2d4; stroke:none;" d="M197 275L198 276L197 275M198 278L199 279L198 278z"/>
<path style="fill:#7d89b7; stroke:none;" d="M141.333 280.667L141.667 281.333L141.333 280.667M199 280L200 281L199 280z"/>
<path style="fill:#bbc2d4; stroke:none;" d="M199 281L200 282L199 281M200 283L201 284L200 283z"/>
<path style="fill:#708df2; stroke:none;" d="M142.333 284.667L142.667 285.333L142.333 284.667z"/>
<path style="fill:#7d89b7; stroke:none;" d="M201 285L202 286L201 285M143 287L144 288L143 287z"/>
<path style="fill:#bbc2d4; stroke:none;" d="M202 287L203 288L202 287M203 288L204 289L203 288z"/>
<path style="fill:#708df2; stroke:none;" d="M144 290L145 291L144 290z"/>
<path style="fill:#bbc2d4; stroke:none;" d="M204 290L205 291L204 290z"/>
<path style="fill:#7d89b7; stroke:none;" d="M205 291L206 292L205 291M145 293L146 294L145 293z"/>
<path style="fill:#708df2; stroke:none;" d="M206 293L207 294L206 293z"/>
<path style="fill:#bbc2d4; stroke:none;" d="M206 294L207 295L206 294z"/>
<path style="fill:#708df2; stroke:none;" d="M146 295L147 296L146 295z"/>
<path style="fill:#bbc2d4; stroke:none;" d="M207 295L208 296L207 295z"/>
<path style="fill:#708df2; stroke:none;" d="M208 296L209 297L208 296z"/>
<path style="fill:#7d89b7; stroke:none;" d="M209 297L210 298L209 297z"/>
<path style="fill:#bbc2d4; stroke:none;" d="M326 297C308.934 320.724 271.16 330.69 244 322.562C233.995 319.568 226.872 313.054 218 308L234 324L237 323C240.164 327.175 248.973 328.703 254 329.789C271.937 333.661 292.939 330.894 309 321.846C321.434 314.842 326.758 304.81 341 311L326 297z"/>
<path style="fill:#7d89b7; stroke:none;" d="M147 298L148 299L147 298z"/>
<path style="fill:#bbc2d4; stroke:none;" d="M209 298L210 299L209 298z"/>
<path style="fill:#708df2; stroke:none;" d="M325 298L326 299L325 298z"/>
<path style="fill:#bbc2d4; stroke:none;" d="M210 299L211 300L210 299z"/>
<path style="fill:#7d89b7; stroke:none;" d="M324 299L325 300L324 299z"/>
<path style="fill:#708df2; stroke:none;" d="M211 300L212 301L211 300M323 300L324 301L323 300z"/>
<path style="fill:#bbc2d4; stroke:none;" d="M211.333 301.667L211.667 302.333L211.333 301.667z"/>
<path style="fill:#7d89b7; stroke:none;" d="M322 301L323 302L322 301z"/>
<path style="fill:#708df2; stroke:none;" d="M321 302L322 303L321 302z"/>
<path style="fill:#7d89b7; stroke:none;" d="M149 303L150 304L149 303z"/>
<path style="fill:#bbc2d4; stroke:none;" d="M213 304L214 305L213 304z"/>
<path style="fill:#708df2; stroke:none;" d="M150 305L151 306L150 305z"/>
<path style="fill:#bbc2d4; stroke:none;" d="M214 305L215 306L214 305z"/>
<path style="fill:#7d89b7; stroke:none;" d="M317 305L318 306L317 305z"/>
<path style="fill:#bbc2d4; stroke:none;" d="M215 306L218 308L218 307L215 306z"/>
<path style="fill:#7d89b7; stroke:none;" d="M216 306L217 307L216 306z"/>
<path style="fill:#708df2; stroke:none;" d="M315 306L316 307L315 306z"/>
<path style="fill:#7d89b7; stroke:none;" d="M336 306L337 307L336 306z"/>
<path style="fill:#708df2; stroke:none;" d="M152 308L153 309L152 308z"/>
<path style="fill:#7d89b7; stroke:none;" d="M219 308L220 309L219 308M312 308L313 309L312 308z"/>
<path style="fill:#708df2; stroke:none;" d="M220 309L221 310L220 309z"/>
<path style="fill:#7d89b7; stroke:none;" d="M153 310L154 311L153 310M309 310L310 311L309 310z"/>
<path style="fill:#bbc2d4; stroke:none;" d="M341 311L342 312L341 311z"/>
<path style="fill:#708df2; stroke:none;" d="M154.333 312.667L154.667 313.333L154.333 312.667z"/>
<path style="fill:#7d89b7; stroke:none;" d="M224 312L225 313L224 312M306 312L307 313L306 312z"/>
<path style="fill:#bbc2d4; stroke:none;" d="M342 312L343 313L342 312M343 313L345 316L343 313z"/>
<path style="fill:#7d89b7; stroke:none;" d="M227 314L228 315L227 314z"/>
<path style="fill:#708df2; stroke:none;" d="M304 314L305 315L304 314z"/>
<path style="fill:#7d89b7; stroke:none;" d="M344 314L345 315L344 314z"/>
<path style="fill:#708df2; stroke:none;" d="M155 315L156 316L155 315M302 315L303 316L302 315z"/>
<path style="fill:#7d89b7; stroke:none;" d="M230 316L231 317L230 316M300 316L301 317L300 316z"/>
<path style="fill:#bbc2d4; stroke:none;" d="M345 316L348 319L345 316z"/>
<path style="fill:#7d89b7; stroke:none;" d="M156 317L157 318L156 317z"/>
<path style="fill:#708df2; stroke:none;" d="M231 317L232 318L231 317M298 317L299 318L298 317M157 318L158 319L157 318z"/>
<path style="fill:#7d89b7; stroke:none;" d="M233 318L234 319L233 318M296 318L297 319L296 318z"/>
<path style="fill:#708df2; stroke:none;" d="M235 319L236 320L235 319M294 319L295 320L294 319z"/>
<path style="fill:#bbc2d4; stroke:none;" d="M348 319L349 320L348 319z"/>
<path style="fill:#7d89b7; stroke:none;" d="M238 320L239 321L238 320M291 320L292 321L291 320z"/>
<path style="fill:#bbc2d4; stroke:none;" d="M349 320L350 321L349 320z"/>
<path style="fill:#708df2; stroke:none;" d="M159 321L160 322L159 321M240 321L241 322L240 321M288.667 321.333L289.333 321.667L288.667 321.333z"/>
<path style="fill:#bbc2d4; stroke:none;" d="M350 321L350 323L352 323L350 321z"/>
<path style="fill:#7d89b7; stroke:none;" d="M243.667 322.333L244.333 322.667L243.667 322.333M285.667 322.333L286.333 322.667L285.667 322.333M160 323L161 324L160 323z"/>
<path style="fill:#708df2; stroke:none;" d="M247 323L248 324L247 323M282 323L283 324L282 323z"/>
<path style="fill:#bbc2d4; stroke:none;" d="M352 323L352 325L354 325L352 323z"/>
<path style="fill:#708df2; stroke:none;" d="M161 324L162 325L161 324z"/>
<path style="fill:#7d89b7; stroke:none;" d="M251.667 324.333L252.333 324.667L251.667 324.333M276.667 324.333L277.333 324.667L276.667 324.333M162 325L163 326L162 325M262 325L262 326L267 326L262 325z"/>
<path style="fill:#bbc2d4; stroke:none;" d="M354 325L358 328L358 327L354 325z"/>
<path style="fill:#7d89b7; stroke:none;" d="M355 325L356 326L355 325M164 327L165 328L164 327z"/>
<path style="fill:#bbc2d4; stroke:none;" d="M358 328L358 330L360 330L358 328z"/>
<path style="fill:#7d89b7; stroke:none;" d="M166 330L167 331L166 330z"/>
<path style="fill:#bbc2d4; stroke:none;" d="M360 330L361 331L360 330z"/>
<path style="fill:#708df2; stroke:none;" d="M360 331L361 332L360 331z"/>
<path style="fill:#7d89b7; stroke:none;" d="M168 332L169 333L168 332M359 332L360 333L359 332z"/>
<path style="fill:#708df2; stroke:none;" d="M169 333L170 334L169 333M358 333L359 334L358 333z"/>
<path style="fill:#7d89b7; stroke:none;" d="M170 334L171 335L170 334z"/>
<path style="fill:#bbc2d4; stroke:none;" d="M357 334L358 335L357 334z"/>
<path style="fill:#708df2; stroke:none;" d="M171 335L172 336L171 335M356 335L357 336L356 335z"/>
<path style="fill:#bbc2d4; stroke:none;" d="M355 336L356 337L355 336z"/>
<path style="fill:#708df2; stroke:none;" d="M354 337L355 338L354 337z"/>
<path style="fill:#7d89b7; stroke:none;" d="M173 338L174 339L173 338M353 338L354 339L353 338z"/>
<path style="fill:#708df2; stroke:none;" d="M352 339L353 340L352 339z"/>
<path style="fill:#7d89b7; stroke:none;" d="M351 340L352 341L351 340z"/>
<path style="fill:#708df2; stroke:none;" d="M176 341L177 342L176 341M350 341L351 342L350 341z"/>
<path style="fill:#7d89b7; stroke:none;" d="M177 342L178 343L177 342M349 342L350 343L349 342z"/>
<path style="fill:#708df2; stroke:none;" d="M178 343L179 344L178 343M60 344L60 350L61 350L60 344M180 344L181 345L180 344M346 344L347 345L346 344M439 344L439 347L440 347L439 344z"/>
<path style="fill:#bbc2d4; stroke:none;" d="M344 345L345 346L344 345z"/>
<path style="fill:#7d89b7; stroke:none;" d="M184 347L185 348L184 347z"/>
<path style="fill:#bbc2d4; stroke:none;" d="M439 347L439 350L440 350L439 347M186 348L189 350L186 348M341 348L342 349L341 348M340 349L341 350L340 349M60 350L60 360L61 360L60 350z"/>
<path style="fill:#708df2; stroke:none;" d="M188 350L189 351L188 350z"/>
<path style="fill:#7d89b7; stroke:none;" d="M189 351L190 352L189 351z"/>
<path style="fill:#bbc2d4; stroke:none;" d="M190 351L191 352L190 351M337 351L338 352L337 351M191 352L192 353L191 352z"/>
<path style="fill:#708df2; stroke:none;" d="M336 352L337 353L336 352z"/>
<path style="fill:#bbc2d4; stroke:none;" d="M192 353L193 354L192 353z"/>
<path style="fill:#708df2; stroke:none;" d="M193 354L194 355L193 354M333 354L334 355L333 354z"/>
<path style="fill:#7d89b7; stroke:none;" d="M194 355L195 356L194 355z"/>
<path style="fill:#bbc2d4; stroke:none;" d="M195 355L196 356L195 355z"/>
<path style="fill:#708df2; stroke:none;" d="M196 356L197 357L196 356z"/>
<path style="fill:#bbc2d4; stroke:none;" d="M197 356L198 357L197 356z"/>
<path style="fill:#708df2; stroke:none;" d="M330 356L331 357L330 356z"/>
<path style="fill:#bbc2d4; stroke:none;" d="M198 357L199 358L198 357M328 357L329 358L328 357M200 358L201 359L200 358M326 358L327 359L326 358z"/>
<path style="fill:#7d89b7; stroke:none;" d="M438 358L439 359L438 358z"/>
<path style="fill:#bbc2d4; stroke:none;" d="M202 359L203 360L202 359M325 359L326 360L325 359M438 359L438 362L439 362L438 359M204 360L205 361L204 360z"/>
<path style="fill:#7d89b7; stroke:none;" d="M205 361L206 362L205 361z"/>
<path style="fill:#bbc2d4; stroke:none;" d="M206 361L207 362L206 361z"/>
<path style="fill:#7d89b7; stroke:none;" d="M322 361L323 362L322 361z"/>
<path style="fill:#bbc2d4; stroke:none;" d="M208 362L209 363L208 362z"/>
<path style="fill:#708df2; stroke:none;" d="M210 363L211 364L210 363z"/>
<path style="fill:#bbc2d4; stroke:none;" d="M211 363L212 364L211 363z"/>
<path style="fill:#708df2; stroke:none;" d="M316.667 363.333L317.333 363.667L316.667 363.333z"/>
<path style="fill:#7d89b7; stroke:none;" d="M213 364L214 365L213 364z"/>
<path style="fill:#bbc2d4; stroke:none;" d="M214 364L215 365L214 364z"/>
<path style="fill:#7d89b7; stroke:none;" d="M313 364L314 365L313 364z"/>
<path style="fill:#708df2; stroke:none;" d="M216 365L217 366L216 365z"/>
<path style="fill:#bbc2d4; stroke:none;" d="M217 365L218 366L217 365M310 365L311 366L310 365z"/>
<path style="fill:#708df2; stroke:none;" d="M61 366L62 367L61 366z"/>
<path style="fill:#7d89b7; stroke:none;" d="M218 366L219 367L218 366z"/>
<path style="fill:#bbc2d4; stroke:none;" d="M219 366L220 367L219 366M307 366L308 367L307 366z"/>
<path style="fill:#7d89b7; stroke:none;" d="M308 366L309 367L308 366z"/>
<path style="fill:#708df2; stroke:none;" d="M437 366L438 367L437 366z"/>
<path style="fill:#bbc2d4; stroke:none;" d="M61 367L62 368L61 367M222.667 367.333L223.333 367.667L222.667 367.333M305 367L306 368L305 367M437 367L438 368L437 367z"/>
<path style="fill:#7d89b7; stroke:none;" d="M225 368L226 369L225 368z"/>
<path style="fill:#bbc2d4; stroke:none;" d="M302 368L303 369L302 368z"/>
<path style="fill:#708df2; stroke:none;" d="M228 369L229 370L228 369z"/>
<path style="fill:#bbc2d4; stroke:none;" d="M229 369L230 370L229 369M297.667 369.333L298.333 369.667L297.667 369.333z"/>
<path style="fill:#708df2; stroke:none;" d="M299 369L300 370L299 369z"/>
<path style="fill:#7d89b7; stroke:none;" d="M231 370L232 371L231 370z"/>
<path style="fill:#bbc2d4; stroke:none;" d="M232 370L233 371L232 370z"/>
<path style="fill:#7d89b7; stroke:none;" d="M294 370L295 371L294 370M62 371L63 372L62 371z"/>
<path style="fill:#708df2; stroke:none;" d="M236 371L237 372L236 371z"/>
<path style="fill:#bbc2d4; stroke:none;" d="M237.667 371.333L238.333 371.667L237.667 371.333M288 371L289 372L288 371z"/>
<path style="fill:#708df2; stroke:none;" d="M289.667 371.333L290.333 371.667L289.667 371.333z"/>
<path style="fill:#7d89b7; stroke:none;" d="M436 371L437 372L436 371z"/>
<path style="fill:#bbc2d4; stroke:none;" d="M62.3333 372.667L62.6667 373.333L62.3333 372.667z"/>
<path style="fill:#7d89b7; stroke:none;" d="M242 372L243 373L242 372z"/>
<path style="fill:#bbc2d4; stroke:none;" d="M243 372L244 373L243 372M283 372L284 373L283 372z"/>
<path style="fill:#7d89b7; stroke:none;" d="M284 372L285 373L284 372z"/>
<path style="fill:#bbc2d4; stroke:none;" d="M436.333 372.667L436.667 373.333L436.333 372.667z"/>
<path style="fill:#708df2; stroke:none;" d="M249 373L249 374L252 374L249 373z"/>
<path style="fill:#bbc2d4; stroke:none;" d="M252 373L252 374L257 374L252 373M268 373L268 374L272 374L268 373z"/>
<path style="fill:#708df2; stroke:none;" d="M272 373L272 374L276 374L272 373M63 376L64 377L63 376M435 376L436 377L435 376z"/>
<path style="fill:#bbc2d4; stroke:none;" d="M63 377L64 378L63 377M435 377L436 378L435 377z"/>
<path style="fill:#7d89b7; stroke:none;" d="M64.3333 379.667L64.6667 380.333L64.3333 379.667M434 380L435 381L434 380z"/>
<path style="fill:#bbc2d4; stroke:none;" d="M64 381L65 382L64 381M434 381L435 382L434 381M65 383L66 384L65 383M433 383L434 384L433 383z"/>
<path style="fill:#7d89b7; stroke:none;" d="M66 385L67 386L66 385M432 385L433 386L432 385z"/>
<path style="fill:#bbc2d4; stroke:none;" d="M66 386L67 387L66 386M432 386L433 387L432 386M67 388L68 389L67 388z"/>
<path style="fill:#708df2; stroke:none;" d="M431 388L432 389L431 388z"/>
<path style="fill:#7d89b7; stroke:none;" d="M68 390L69 391L68 390M430 390L431 391L430 390z"/>
<path style="fill:#708df2; stroke:none;" d="M69 392L70 393L69 392M429 392L430 393L429 392z"/>
<path style="fill:#bbc2d4; stroke:none;" d="M69 393L70 394L69 393M429 393L430 394L429 393z"/>
<path style="fill:#7d89b7; stroke:none;" d="M70 394L71 395L70 394M428 394L429 395L428 394z"/>
<path style="fill:#708df2; stroke:none;" d="M71 396L72 397L71 396M427 396L428 397L427 396z"/>
<path style="fill:#bbc2d4; stroke:none;" d="M72 398L73 399L72 398M426 398L427 399L426 398M73 400L74 401L73 400M425 400L426 401L425 400M74 401L75 402L74 401M424 401L425 402L424 401M75 402L76 403L75 402M423 402L424 403L423 402z"/>
<path style="fill:#7d89b7; stroke:none;" d="M76 403L77 404L76 403M422 403L423 404L422 403z"/>
<path style="fill:#708df2; stroke:none;" d="M78 406L79 407L78 406M420 406L421 407L420 406z"/>
<path style="fill:#bbc2d4; stroke:none;" d="M78 407L79 408L78 407M420 407L421 408L420 407z"/>
<path style="fill:#708df2; stroke:none;" d="M79 408L80 409L79 408z"/>
<path style="fill:#bbc2d4; stroke:none;" d="M82 412L83 413L82 412M416 412L417 413L416 412M84 414L85 415L84 414M414 414L415 415L414 414M86 416L87 417L86 416M412 416L413 417L412 416z"/>
<path style="fill:#708df2; stroke:none;" d="M90 419L91 420L90 419M408 419L409 420L408 419z"/>
<path style="fill:#bbc2d4; stroke:none;" d="M91 420L92 421L91 420z"/>
<path style="fill:#708df2; stroke:none;" d="M92 420L93 421L92 420M406 420L407 421L406 420z"/>
<path style="fill:#bbc2d4; stroke:none;" d="M407 420L408 421L407 420z"/>
<path style="fill:#7d89b7; stroke:none;" d="M95 422L96 423L95 422M403 422L404 423L403 422z"/>
<path style="fill:#bbc2d4; stroke:none;" d="M96 423L97 424L96 423M402 423L403 424L402 423M97 424L98 425L97 424M401 424L402 425L401 424M98 425L99 426L98 425M400 425L401 426L400 425M100 426L101 427L100 426M398 426L399 427L398 426z"/>
<path style="fill:#708df2; stroke:none;" d="M102 427L103 428L102 427M396 427L397 428L396 427z"/>
<path style="fill:#7d89b7; stroke:none;" d="M104 428L105 429L104 428M394 428L395 429L394 428z"/>
<path style="fill:#bbc2d4; stroke:none;" d="M105 429L106 430L105 429z"/>
<path style="fill:#708df2; stroke:none;" d="M106 429L107 430L106 429M392 429L393 430L392 429z"/>
<path style="fill:#bbc2d4; stroke:none;" d="M393 429L394 430L393 429z"/>
<path style="fill:#7d89b7; stroke:none;" d="M108 430L109 431L108 430M390 430L391 431L390 430z"/>
<path style="fill:#bbc2d4; stroke:none;" d="M110 431L111 432L110 431z"/>
<path style="fill:#708df2; stroke:none;" d="M388 431L389 432L388 431z"/>
<path style="fill:#bbc2d4; stroke:none;" d="M112 432L113 433L112 432z"/>
<path style="fill:#7d89b7; stroke:none;" d="M113 432L114 433L113 432M385 432L386 433L385 432z"/>
<path style="fill:#bbc2d4; stroke:none;" d="M386 432L387 433L386 432M115 433L116 434L115 433M383 433L384 434L383 433M117 434L118 435L117 434z"/>
<path style="fill:#7d89b7; stroke:none;" d="M118.667 434.333L119.333 434.667L118.667 434.333M380 434L381 435L380 434z"/>
<path style="fill:#bbc2d4; stroke:none;" d="M381 434L382 435L381 434M121 435L122 436L121 435z"/>
<path style="fill:#708df2; stroke:none;" d="M122 435L123 436L122 435M376 435L377 436L376 435z"/>
<path style="fill:#bbc2d4; stroke:none;" d="M377 435L378 436L377 435M126 436L127 437L126 436z"/>
<path style="fill:#7d89b7; stroke:none;" d="M127 436L128 437L127 436M371 436L372 437L371 436z"/>
<path style="fill:#bbc2d4; stroke:none;" d="M372.667 436.333L373.333 436.667L372.667 436.333M131 437L132 438L131 437z"/>
<path style="fill:#708df2; stroke:none;" d="M132 437L133 438L132 437M366 437L367 438L366 437z"/>
<path style="fill:#bbc2d4; stroke:none;" d="M367 437L368 438L367 437M137 438L137 439L140 439L137 438z"/>
<path style="fill:#7d89b7; stroke:none;" d="M140.667 438.333L141.333 438.667L140.667 438.333M358 438L359 439L358 438z"/>
<path style="fill:#bbc2d4; stroke:none;" d="M359 438L359 439L362 439L359 438M149 439L149 440L152 440L149 439z"/>
<path style="fill:#708df2; stroke:none;" d="M152 439L152 440L156 440L152 439M344 439L344 440L347 440L344 439z"/>
<path style="fill:#bbc2d4; stroke:none;" d="M347 439L347 440L350 440L347 439z"/>
</svg>
