<svg width="23" height="21" viewBox="0 0 23 21" fill="none" xmlns="http://www.w3.org/2000/svg">
<path fill-rule="evenodd" clip-rule="evenodd" d="M7.49021 7.088C5.04306 9.86226 5.27545 14.7209 8.5946 16.7133C8.59818 16.7155 8.60168 16.7177 8.60518 16.7199C8.60775 16.7215 8.61033 16.7232 8.61296 16.7248L13.2598 19.4712C16.2164 21.2187 20.0405 20.215 21.7577 17.2407C23.4404 14.3261 22.4468 10.5405 19.5496 8.82815L14.1192 5.5119C14.0889 5.49394 14.0536 5.52676 14.0698 5.55814C14.2093 6.67441 14.2093 6.81395 14.14 9.15624C14.1319 9.27097 14.1881 9.38042 14.2869 9.43931L18.0647 11.6915C19.4666 12.52 19.9357 14.345 19.1071 15.7469C18.2928 17.1573 16.4795 17.6332 15.0775 16.8046L11.5595 14.7253L11.5637 14.7225C11.4078 14.6274 11.2453 14.5323 11.0805 14.4359C10.2471 13.9484 9.35873 13.4287 9.00257 12.7194C8.65307 12.0602 8.57492 11.3525 8.71704 10.6641C8.81524 10.2235 8.90126 9.96182 9.02307 9.5912C9.05481 9.49463 9.08898 9.39066 9.12643 9.27421C9.5986 8.48522 8.21891 7.26346 7.81109 7.03426C7.70479 6.97453 7.57083 6.99656 7.49021 7.088ZM0.542132 14.8541C0.542624 14.8531 0.543119 14.8521 0.543599 14.8509C0.22695 14.0845 0.232811 11.3154 0.237067 9.30488C0.238814 8.47973 0.24029 7.78235 0.219091 7.40361C0.182615 3.83024 3.07639 0.876699 6.64977 0.840223C10.2235 0.840189 13.1773 3.76401 13.2138 7.33755L13.2669 14.511C13.2686 14.7397 13.1451 14.9191 12.9224 14.867C12.6952 14.7548 12.3847 14.5654 12.0019 14.3319C11.4961 14.0234 10.8642 13.638 10.1318 13.252C9.98961 13.1771 9.95836 13.0909 9.9567 12.9722L9.82631 7.11839C9.80883 5.40675 8.39411 4.02061 6.68246 4.03809C4.97082 4.05556 3.58468 5.47029 3.60216 7.18193C3.60649 7.58655 3.61321 8.24764 3.62032 8.94644C3.62997 9.8954 3.64032 10.9139 3.64636 11.454C3.64833 11.5889 3.64924 11.7266 3.65017 11.8659C3.65772 13.0023 3.66598 14.2462 4.25386 15.0102C4.72022 15.6883 5.41646 16.0569 5.8631 16.1717C6.74274 16.4154 7.37217 16.5814 7.37217 16.5814C7.37217 16.5814 7.65123 16.7209 10.3024 18.6744C10.3024 18.6744 9.88367 19.2326 9.46512 19.3721C7.15335 20.1428 4.74108 19.3702 3.47389 18.6007L3.47203 18.6015L3.47206 18.6039C2.06663 17.7226 1.00387 16.4397 0.540484 14.8578C0.541013 14.8565 0.541571 14.8553 0.542132 14.8541Z" fill="#757E90"/>
</svg>
