<svg width="30" height="30" viewBox="0 0 30 30" xmlns="http://www.w3.org/2000/svg"><title>Group 2</title><path d="M15 30c8.284 0 15-6.716 15-15 0-8.284-6.716-15-15-15C6.716 0 0 6.716 0 15c0 8.284 6.716 15 15 15zm-7.529-9.25l1.656 1.682a1.57 1.57 0 0 0 2.224.016l3.615-3.568 3.563 3.619a1.57 1.57 0 0 0 2.223.015l1.68-1.656c.618-.61.625-1.607.015-2.227l-3.563-3.619 3.616-3.568c.618-.61.625-1.607.015-2.226L20.86 7.536a1.571 1.571 0 0 0-2.223-.016l-3.616 3.569-3.564-3.62a1.572 1.572 0 0 0-2.223-.016L7.555 9.11a1.576 1.576 0 0 0-.016 2.226l3.564 3.62-3.615 3.569a1.575 1.575 0 0 0-.017 2.225z" fill="#fff" fill-rule="evenodd"/></svg>
