<svg width="30" height="30" viewBox="0 0 30 30" xmlns="http://www.w3.org/2000/svg"><title>Group</title><path d="M15 30c8.284 0 15-6.716 15-15 0-8.284-6.716-15-15-15C6.716 0 0 6.716 0 15c0 8.284 6.716 15 15 15zm9.618-19.904l-1.753-1.713a1.207 1.207 0 0 0-.876-.353c-.344 0-.636.117-.877.353l-8.456 8.275-3.79-3.716a1.207 1.207 0 0 0-.876-.352c-.343 0-.636.117-.876.352L5.36 14.655c-.24.235-.361.52-.361.857 0 .336.12.621.36.856l4.667 4.56 1.753 1.713c.24.235.533.353.876.353.344 0 .636-.118.877-.353l1.753-1.713 9.332-9.12c.24-.234.36-.52.36-.856.001-.336-.12-.621-.36-.856z" fill="#fff" fill-rule="evenodd"/></svg>
