<svg width="30" height="30" viewBox="0 0 30 30" xmlns="http://www.w3.org/2000/svg"><title>Group 2</title><path d="M22.9 17.4a1.273 1.273 0 0 0-.664-.806l-2.971-1.603 2.97-1.602c.343-.18.565-.45.665-.806.1-.358.054-.696-.14-1.015l-.714-1.145a1.339 1.339 0 0 0-.866-.619 1.5 1.5 0 0 0-1.089.13l-2.97 1.593V8.332c0-.36-.142-.673-.425-.937A1.425 1.425 0 0 0 15.69 7h-1.43c-.387 0-.722.132-1.005.395-.283.264-.424.576-.424.937v3.195L9.86 9.935a1.5 1.5 0 0 0-1.09-.13 1.34 1.34 0 0 0-.865.618l-.715 1.145c-.193.319-.24.657-.14 1.015.101.357.323.626.665.806l2.971 1.603-2.97 1.602c-.343.18-.565.45-.665.806-.1.358-.054.696.14 1.015l.714 1.144c.194.32.482.526.866.62a1.5 1.5 0 0 0 1.089-.13l2.97-1.593v3.195c0 .36.142.673.425.936.283.264.618.396 1.005.396h1.43c.387 0 .722-.132 1.005-.396.283-.263.424-.576.424-.936v-3.194l2.971 1.592a1.5 1.5 0 0 0 1.09.13c.383-.094.671-.3.865-.62l.715-1.144c.193-.32.24-.657.14-1.015zM15 30c8.284 0 15-6.716 15-15 0-8.284-6.716-15-15-15C6.716 0 0 6.716 0 15c0 8.284 6.716 15 15 15z" fill="#fff" fill-rule="evenodd"/></svg>
