<svg width="24" height="24" viewBox="0 0 24 24" fill="none" xmlns="http://www.w3.org/2000/svg">
<g clip-path="url(#clip0_60_28304)">
<path d="M21.9989 18H19.9989V19H22.9989V20H18.9989V18C18.9989 17.45 19.4489 17 19.9989 17H21.9989V16H18.9989V15H21.9989C22.5489 15 22.9989 15.45 22.9989 16V17C22.9989 17.55 22.5489 18 21.9989 18ZM5.87891 18H8.53891L11.9389 12.58H12.0589L15.4589 18H18.1189L13.4689 10.73L17.8089 4H15.1289L12.0589 8.99H11.9389L8.84891 4H6.18891L10.5089 10.73L5.87891 18Z" fill="#1E1E54"/>
</g>
<defs>
<clipPath id="clip0_60_28304">
<rect width="24" height="24" fill="white"/>
</clipPath>
</defs>
</svg>
