<svg width="24" height="24" viewBox="0 0 24 24" fill="none" xmlns="http://www.w3.org/2000/svg">
<g clip-path="url(#clip0_60_28305)">
<path d="M21.9989 7H19.9989V8H22.9989V9H18.9989V7C18.9989 6.45 19.4489 6 19.9989 6H21.9989V5H18.9989V4H21.9989C22.5489 4 22.9989 4.45 22.9989 5V6C22.9989 6.55 22.5489 7 21.9989 7ZM5.87891 20H8.53891L11.9389 14.58H12.0589L15.4589 20H18.1189L13.4689 12.73L17.8089 6H15.1289L12.0589 10.99H11.9389L8.84891 6H6.18891L10.5089 12.73L5.87891 20Z" fill="#1E1E54"/>
</g>
<defs>
<clipPath id="clip0_60_28305">
<rect width="24" height="24" fill="white"/>
</clipPath>
</defs>
</svg>
