<svg xmlns="http://www.w3.org/2000/svg" xmlns:xlink="http://www.w3.org/1999/xlink" version="1.1" width="106" height="24" viewBox="0 0 106 24" xml:space="preserve">
<rect x="0" y="0" width="100%" height="100%" fill="#ffffff"/>
<g transform="matrix(0.0369 0 0 0.0369 10.7528 11.7532)" id="374156">
<path style="stroke: none; stroke-width: 1; stroke-dasharray: none; stroke-linecap: butt; stroke-dashoffset: 0; stroke-linejoin: miter; stroke-miterlimit: 4; is-custom-font: none; font-file-url: none; fill: rgb(30,30,84); fill-rule: nonzero; opacity: 1;" vector-effect="non-scaling-stroke" transform=" translate(-255.9948, -255.9974)" d="M 175.2 288.9 c -24.31 2.156 -46.98 12.2 -64.38 29.7 c -22.4 22.51 -32.32 52.9 -29.74 82.38 c 2.254 25.82 -16.99 46.1 -49.03 46.1 C 14.34 448 0 462.3 0 480 C 0 497.7 14.34 512 32.04 512 h 53.78 c 54.59 0 133.2 -7.568 172.3 -46.92 c 23.67 -23.82 32.49 -56.36 28.19 -87.39 L 175.2 288.9 z M 499.5 17.46 c -8.979 -10.28 -21.4 -16.44 -35.01 -17.33 c -13.55 -1 -26.72 3.578 -36.92 12.59 L 222.3 193.7 C 215.8 199.4 210.1 206.2 205.7 213.1 c -9.459 14.95 -13.76 31.67 -13.78 48.2 l 110.3 88.18 c 23.03 -5.436 42.71 -19.34 55.41 -39.44 l 146.4 -231.6 C 516.2 59.49 514.2 34.4 499.5 17.46 z" stroke-linecap="round"/>
</g>
<g transform="matrix(1 0 0 1 65.5211 12.975)" style="" id="258910">
		
<path xml:space="preserve" font-family="Allerta" font-size="15" font-style="normal" font-weight="normal" style="stroke: none; stroke-width: 1; stroke-dasharray: none; stroke-linecap: butt; stroke-dashoffset: 0; stroke-linejoin: miter; stroke-miterlimit: 4; is-custom-font: none; font-file-url: none; fill: rgb(30,30,84); fill-rule: nonzero; opacity: 1; white-space: pre;" d="M-30.10-0.99L-30.10-0.99Q-30.10 0.35-30.38 1.29Q-30.67 2.24-31.11 2.87Q-31.55 3.51-32.09 3.88Q-32.64 4.24-33.16 4.43Q-33.67 4.61-34.09 4.66Q-34.52 4.71-34.72 4.71L-34.72 4.71L-38.81 4.71L-38.81-6.08L-35.56-6.08Q-34.20-6.08-33.16-5.65Q-32.13-5.22-31.45-4.50Q-30.77-3.78-30.43-2.87Q-30.10-1.95-30.10-0.99ZM-37.05 3.42L-35.31 3.42Q-33.52 3.42-32.73 2.28Q-31.94 1.14-31.94-1.03L-31.94-1.03Q-31.94-1.70-32.10-2.36Q-32.26-3.02-32.72-3.56Q-33.19-4.09-33.98-4.42Q-34.77-4.75-36.03-4.75L-36.03-4.75L-37.05-4.75L-37.05 3.42ZM-23.03-3.61L-23.03-1.76Q-23.44-1.88-24.03-1.89L-24.03-1.89Q-24.56-1.89-25.08-1.77Q-25.60-1.65-25.91-1.35L-25.91-1.35L-25.91 1.78L-25.91 1.81L-25.91 4.71L-27.68 4.71L-27.68-3.55L-26.10-3.55L-25.91-2.70Q-25.69-2.92-25.44-3.10Q-25.20-3.27-24.88-3.38Q-24.56-3.49-24.12-3.55Q-23.68-3.61-23.03-3.61L-23.03-3.61ZM-15.15 0.24L-15.15 2.15L-15.15 2.27Q-15.15 2.38-15.14 2.61Q-15.12 2.84-15.08 3.07Q-15.04 3.31-14.94 3.50Q-14.85 3.69-14.69 3.75L-14.69 3.75L-15.15 4.73Q-15.34 4.73-15.56 4.64Q-15.77 4.55-15.97 4.39Q-16.16 4.23-16.30 4.03Q-16.44 3.83-16.52 3.60L-16.52 3.60Q-16.62 3.85-16.88 4.06Q-17.13 4.27-17.45 4.44Q-17.78 4.61-18.15 4.70Q-18.52 4.79-18.85 4.79L-18.85 4.79Q-19.34 4.79-19.80 4.65Q-20.27 4.52-20.62 4.23Q-20.97 3.94-21.17 3.45Q-21.36 2.97-21.36 2.27L-21.36 2.27Q-21.36 1.59-21.08 1.10Q-20.79 0.61-20.35 0.30Q-19.90-0.02-19.33-0.17Q-18.76-0.33-18.17-0.33L-18.17-0.33L-16.93-0.33Q-16.93-1.04-17.00-1.47Q-17.07-1.89-17.25-2.09Q-17.42-2.29-17.68-2.34Q-17.94-2.39-18.29-2.39L-18.29-2.39Q-18.61-2.39-18.90-2.31Q-19.18-2.23-19.42-2.12Q-19.67-2.01-19.85-1.88Q-20.03-1.75-20.12-1.67L-20.12-1.67L-20.78-2.69Q-20.63-2.85-20.34-3.01Q-20.05-3.18-19.67-3.32Q-19.28-3.45-18.84-3.53Q-18.39-3.61-17.91-3.61L-17.91-3.61Q-17.47-3.61-17.05-3.52Q-16.63-3.43-16.29-3.23Q-15.94-3.02-15.69-2.68Q-15.43-2.33-15.33-1.82L-15.33-1.82Q-15.23-1.31-15.19-0.79Q-15.15-0.27-15.15 0.24L-15.15 0.24ZM-16.91 2.73L-16.91 0.71L-17.85 0.71Q-18.14 0.71-18.46 0.77Q-18.79 0.83-19.06 0.99Q-19.34 1.15-19.53 1.45Q-19.71 1.75-19.71 2.22L-19.71 2.22Q-19.71 2.95-19.38 3.28Q-19.05 3.60-18.42 3.60L-18.42 3.60Q-17.98 3.60-17.58 3.36Q-17.18 3.13-16.91 2.73L-16.91 2.73ZM-2.98-3.55L-1.06-3.55L-3.39 4.77L-5.68 4.77L-6.89-0.00L-8.21 4.77L-10.51 4.77L-12.63-3.55L-10.73-3.55L-9.37 3.34L-7.83-3.55L-5.91-3.55L-4.52 3.34L-2.98-3.55ZM6.73 4.71L4.90 4.71L8.68-6.07L10.42-6.07L14.17 4.71L12.36 4.71L11.58 2.47L7.52 2.47L6.73 4.71ZM9.56-3.37L7.93 1.28L11.15 1.28L9.56-3.37ZM21.07-3.61L21.07-1.76Q20.66-1.88 20.08-1.89L20.08-1.89Q19.55-1.89 19.03-1.77Q18.51-1.65 18.20-1.35L18.20-1.35L18.20 1.78L18.20 1.81L18.20 4.71L16.43 4.71L16.43-3.55L18.01-3.55L18.20-2.70Q18.42-2.92 18.66-3.10Q18.90-3.27 19.23-3.38Q19.55-3.49 19.99-3.55Q20.43-3.61 21.07-3.61L21.07-3.61ZM26.42-3.64L26.42-3.64Q27.41-3.64 28.18-3.23Q28.94-2.83 29.43-2.17Q29.92-1.50 30.13-0.63Q30.34 0.24 30.21 1.18L30.21 1.18L24.47 1.18Q24.47 1.65 24.65 2.05Q24.82 2.44 25.12 2.73Q25.42 3.01 25.84 3.17Q26.26 3.34 26.74 3.34L26.74 3.34Q26.90 3.34 27.14 3.30Q27.39 3.26 27.66 3.17Q27.93 3.07 28.20 2.92Q28.47 2.78 28.67 2.57L28.67 2.57L29.32 3.55Q28.84 4.16 28.19 4.46Q27.55 4.77 26.55 4.77L26.55 4.77Q25.74 4.77 25.04 4.44Q24.34 4.11 23.84 3.54Q23.34 2.97 23.05 2.21Q22.76 1.45 22.76 0.57L22.76 0.57Q22.76-0.30 23.05-1.07Q23.34-1.84 23.83-2.41Q24.32-2.98 25.00-3.31Q25.67-3.64 26.42-3.64ZM24.53-0.11L28.57-0.11Q28.57-0.50 28.43-0.88Q28.28-1.26 28.02-1.57Q27.77-1.88 27.40-2.06Q27.03-2.25 26.61-2.26L26.61-2.26Q26.15-2.26 25.77-2.08Q25.39-1.91 25.11-1.62Q24.84-1.32 24.68-0.92Q24.53-0.52 24.53-0.11L24.53-0.11ZM38.68 0.24L38.68 2.15L38.68 2.27Q38.68 2.38 38.69 2.61Q38.71 2.84 38.75 3.07Q38.80 3.31 38.89 3.50Q38.99 3.69 39.15 3.75L39.15 3.75L38.68 4.73Q38.49 4.73 38.28 4.64Q38.06 4.55 37.87 4.39Q37.67 4.23 37.53 4.03Q37.39 3.83 37.32 3.60L37.32 3.60Q37.21 3.85 36.96 4.06Q36.70 4.27 36.38 4.44Q36.06 4.61 35.68 4.70Q35.31 4.79 34.99 4.79L34.99 4.79Q34.49 4.79 34.03 4.65Q33.57 4.52 33.22 4.23Q32.86 3.94 32.67 3.45Q32.47 2.97 32.47 2.27L32.47 2.27Q32.47 1.59 32.75 1.10Q33.04 0.61 33.49 0.30Q33.93-0.02 34.50-0.17Q35.08-0.33 35.66-0.33L35.66-0.33L36.91-0.33Q36.91-1.04 36.83-1.47Q36.76-1.89 36.58-2.09Q36.41-2.29 36.15-2.34Q35.90-2.39 35.54-2.39L35.54-2.39Q35.22-2.39 34.94-2.31Q34.65-2.23 34.41-2.12Q34.17-2.01 33.98-1.88Q33.80-1.75 33.71-1.67L33.71-1.67L33.05-2.69Q33.20-2.85 33.49-3.01Q33.79-3.18 34.17-3.32Q34.55-3.45 35.00-3.53Q35.44-3.61 35.93-3.61L35.93-3.61Q36.36-3.61 36.78-3.52Q37.20-3.43 37.54-3.23Q37.89-3.02 38.14-2.68Q38.40-2.33 38.50-1.82L38.50-1.82Q38.61-1.31 38.64-0.79Q38.68-0.27 38.68 0.24L38.68 0.24ZM36.92 2.73L36.92 0.71L35.98 0.71Q35.69 0.71 35.37 0.77Q35.05 0.83 34.77 0.99Q34.49 1.15 34.31 1.45Q34.12 1.75 34.12 2.22L34.12 2.22Q34.12 2.95 34.45 3.28Q34.78 3.60 35.41 3.60L35.41 3.60Q35.85 3.60 36.25 3.36Q36.66 3.13 36.92 2.73L36.92 2.73Z"/></g>
</svg>