<svg xmlns="http://www.w3.org/2000/svg" xmlns:xlink="http://www.w3.org/1999/xlink" version="1.1" width="1000" height="1000" viewBox="0 0 1000 1000" xml:space="preserve">
<g transform="matrix(37.5578 0 0 34.3596 508.5656 526.5436)" id="161687" clip-path="url(#CLIPPATH_0)">
<clipPath id="CLIPPATH_0">
	<rect transform="matrix(1 0 0 1 0 0)" id="clip0_68_17487" x="-12" y="-12" rx="0" ry="0" width="24" height="24"/>
</clipPath>
<path style="stroke: none; stroke-width: 0; stroke-dasharray: none; stroke-linecap: butt; stroke-dashoffset: 0; stroke-linejoin: miter; stroke-miterlimit: 4; is-custom-font: none; font-file-url: none; fill: rgb(30,30,84); fill-rule: nonzero; opacity: 1;" vector-effect="non-scaling-stroke" transform=" translate(-12, -12)" d="M 20 2 H 4 C 2.9 2 2 2.9 2 4 V 16 C 2 17.1 2.9 18 4 18 H 18 L 22 22 V 4 C 22 2.9 21.1 2 20 2 Z M 18 14 H 6 V 12 H 18 V 14 Z M 18 11 H 6 V 9 H 18 V 11 Z M 18 8 H 6 V 6 H 18 V 8 Z" stroke-linecap="round"/>
</g>
<g transform="matrix(0.6816 0 0 0.6669 865.8274 130.267)" id="438429">
<path style="stroke: none; stroke-width: 0; stroke-dasharray: none; stroke-linecap: butt; stroke-dashoffset: 0; stroke-linejoin: miter; stroke-miterlimit: 4; is-custom-font: none; font-file-url: none; fill: rgb(231,58,70); fill-rule: nonzero; opacity: 1;" vector-effect="non-scaling-stroke" transform=" translate(-255.95, -256.3)" d="M 443.6 387.1 L 312.4 255.4 l 131.5 -130 c 5.4 -5.4 5.4 -14.2 0 -19.6 l -37.4 -37.6 c -2.6 -2.6 -6.1 -4 -9.8 -4 c -3.7 0 -7.2 1.5 -9.8 4 L 256 197.8 L 124.9 68.3 c -2.6 -2.6 -6.1 -4 -9.8 -4 c -3.7 0 -7.2 1.5 -9.8 4 L 68 105.9 c -5.4 5.4 -5.4 14.2 0 19.6 l 131.5 130 L 68.4 387.1 c -2.6 2.6 -4.1 6.1 -4.1 9.8 c 0 3.7 1.4 7.2 4.1 9.8 l 37.4 37.6 c 2.7 2.7 6.2 4.1 9.8 4.1 c 3.5 0 7.1 -1.3 9.8 -4.1 L 256 313.1 l 130.7 131.1 c 2.7 2.7 6.2 4.1 9.8 4.1 c 3.5 0 7.1 -1.3 9.8 -4.1 l 37.4 -37.6 c 2.6 -2.6 4.1 -6.1 4.1 -9.8 C 447.7 393.2 446.2 389.7 443.6 387.1 z" stroke-linecap="round"/>
</g>
</svg>