<svg xmlns="http://www.w3.org/2000/svg" xmlns:xlink="http://www.w3.org/1999/xlink" version="1.1" width="1000" height="1000" viewBox="0 0 1000 1000" xml:space="preserve">
<g transform="matrix(37.5578 0 0 34.3596 509.0656 527.0436)" id="15905" clip-path="url(#CLIPPATH_1)">
<clipPath id="CLIPPATH_1">
	<rect transform="matrix(1 0 0 1 0 0)" id="clip0_68_17487" x="-12" y="-12" rx="0" ry="0" width="24" height="24"/>
</clipPath>
<path style="stroke: none; stroke-width: 1; stroke-dasharray: none; stroke-linecap: butt; stroke-dashoffset: 0; stroke-linejoin: miter; stroke-miterlimit: 4; is-custom-font: none; font-file-url: none; fill: rgb(30,30,84); fill-rule: nonzero; opacity: 1;" vector-effect="non-scaling-stroke" transform=" translate(-12, -12)" d="M 20 2 H 4 C 2.9 2 2 2.9 2 4 V 16 C 2 17.1 2.9 18 4 18 H 18 L 22 22 V 4 C 22 2.9 21.1 2 20 2 Z M 18 14 H 6 V 12 H 18 V 14 Z M 18 11 H 6 V 9 H 18 V 11 Z M 18 8 H 6 V 6 H 18 V 8 Z" stroke-linecap="round"/>
</g>
</svg>