<svg xmlns="http://www.w3.org/2000/svg" xmlns:xlink="http://www.w3.org/1999/xlink" version="1.1" width="50" height="50" viewBox="0 0 50 50" xml:space="preserve">
<rect x="12" y="10" width="30px" height="20px" fill="rgb(30,30,84)"/>
<g transform="matrix(0.0766 0 0 0.0815 25.0968 25.0997)" id="344173">
<path style="stroke: none; stroke-width: 1; stroke-dasharray: none; stroke-linecap: butt; stroke-dashoffset: 0; stroke-linejoin: miter; stroke-miterlimit: 4; is-custom-font: none; font-file-url: none; fill: rgb(30,30,84); fill-rule: nonzero; opacity: 1;" vector-effect="non-scaling-stroke" transform=" translate(-288, -256)" d="M 528 32 H 144 c -26.51 0 -48 21.49 -48 48 v 256 c 0 26.51 21.49 48 48 48 H 528 c 26.51 0 48 -21.49 48 -48 v -256 C 576 53.49 554.5 32 528 32 z M 223.1 96 c 17.68 0 32 14.33 32 32 S 241.7 160 223.1 160 c -17.67 0 -32 -14.33 -32 -32 S 206.3 96 223.1 96 z M 494.1 311.6 C 491.3 316.8 485.9 320 480 320 H 192 c -6.023 0 -11.53 -3.379 -14.26 -8.75 c -2.73 -5.367 -2.215 -11.81 1.332 -16.68 l 70 -96 C 252.1 194.4 256.9 192 262 192 c 5.111 0 9.916 2.441 12.93 6.574 l 22.35 30.66 l 62.74 -94.11 C 362.1 130.7 367.1 128 373.3 128 c 5.348 0 10.34 2.672 13.31 7.125 l 106.7 160 C 496.6 300 496.9 306.3 494.1 311.6 z M 456 432 H 120 c -39.7 0 -72 -32.3 -72 -72 v -240 C 48 106.8 37.25 96 24 96 S 0 106.8 0 120 v 240 C 0 426.2 53.83 480 120 480 h 336 c 13.25 0 24 -10.75 24 -24 S 469.3 432 456 432 z" stroke-linecap="round"/>
</g>
</svg>