<svg width="24" height="24" viewBox="0 0 24 24" fill="none" xmlns="http://www.w3.org/2000/svg">
<g clip-path="url(#clip0_24_10898)">
<path d="M16 20H17.7386L19.9608 17.29H20.0392L22.2614 20H24L20.9608 16.365L23.7974 13H22.0458L20.0392 15.495H19.9608L17.9412 13H16.2026L19.0261 16.365L16 20Z" fill="#1E1E54"/>
</g>
<path fill-rule="evenodd" clip-rule="evenodd" d="M6 8.9C4.29 8.9 2.9 10.29 2.9 12C2.9 13.71 4.29 15.1 6 15.1H10V17H6C3.24 17 1 14.76 1 12C1 9.24 3.24 7 6 7H10V8.9H6ZM15 13H7V11H15V13ZM12 7H16C18.76 7 21 9.24 21 12C21 13.0463 20.6781 14.0179 20.1279 14.821L18.8394 13.2444C19.007 12.8634 19.1 12.4424 19.1 12C19.1 10.29 17.71 8.9 16 8.9H12V7ZM17.0146 14.9297C16.6966 15.04 16.3552 15.1 16 15.1H12V17H16C16.8275 17 17.6083 16.7986 18.296 16.4422L17.0146 14.9297Z" fill="#1E1E54"/>
<defs>
<clipPath id="clip0_24_10898">
<rect width="24" height="24" fill="white"/>
</clipPath>
</defs>
</svg>
