<?xml version="1.0" encoding="utf-8"?>
<!-- Generator: Adobe Illustrator 23.0.0, SVG Export Plug-In . SVG Version: 6.00 Build 0)  -->
<svg version="1.1" id="Layer_1" xmlns="http://www.w3.org/2000/svg" xmlns:xlink="http://www.w3.org/1999/xlink" x="0px" y="0px"
	 viewBox="0 0 32 32" style="enable-background:new 0 0 32 32;" xml:space="preserve">
<style type="text/css">
	.st0{fill:#1E1E54;}
	.st1{fill:none;}
</style>
<g>
	<g>
		<path class="st0" d="M3.9,2.1h3.4c0.9,2.1,1.3,3.2,1.5,3.5l0,0c0,0,0.1-0.4,0.4-1l1-2.6h3.4l-3.2,6.5l3.4,7.1h-3.4
			c-1-2.5-1.6-3.8-1.6-4.1l0,0c-0.1,0.4-0.3,0.9-0.4,1.3l-1.2,2.8H3.7l3.2-6.9L3.9,2.1z"/>
	</g>
	<g>
		<path class="st0" d="M17.7,16.8h3.1l2.5,4.2l2.5-4.2h3.3L24.8,24v6.2H22V24L17.7,16.8z"/>
	</g>
	<g>
		<line class="st1" x1="25.8" y1="6.3" x2="6.2" y2="26"/>
		<rect x="2.1" y="15.1" transform="matrix(0.7071 -0.7071 0.7071 0.7071 -6.7053 16.022)" class="st0" width="27.8" height="2"/>
	</g>
</g>
</svg>
