<svg xmlns="http://www.w3.org/2000/svg" xmlns:xlink="http://www.w3.org/1999/xlink" version="1.1" width="32" height="32" viewBox="0 0 1000 1000" xml:space="preserve">
<g transform="matrix(32.3657 0 0 32.5798 500.0004 488.0372)" id="342609" clip-path="url(#CLIPPATH_6)">
<clipPath id="CLIPPATH_6">
	<rect transform="matrix(1 0 0 1 0 0)" id="clip0_24_11608" x="-16" y="-16" rx="0" ry="0" width="32" height="32"/>
</clipPath>
<path style="stroke: none; stroke-width: 1; stroke-dasharray: none; stroke-linecap: butt; stroke-dashoffset: 0; stroke-linejoin: miter; stroke-miterlimit: 4; is-custom-font: none; font-file-url: none; fill: rgb(30,30,84); fill-rule: nonzero; opacity: 1;" vector-effect="non-scaling-stroke" transform=" translate(-16, -16)" d="M 4 12 V 20 H 9.33333 L 16 26.6666 V 5.33331 L 9.33333 12 H 4 Z M 22 16 C 22 13.64 20.64 11.6133 18.6667 10.6266 V 21.36 C 20.64 20.3866 22 18.36 22 16 Z M 18.6667 4.30664 V 7.05331 C 22.52 8.19997 25.3333 11.7733 25.3333 16 C 25.3333 20.2266 22.52 23.8 18.6667 24.9466 V 27.6933 C 24.0133 26.48 28 21.7066 28 16 C 28 10.2933 24.0133 5.51997 18.6667 4.30664 Z" stroke-linecap="round"/>
</g>
<g transform="matrix(0.6108 0 0 0.6108 866.463 881.7556)" id="883169">
<path style="stroke: none; stroke-width: 1; stroke-dasharray: none; stroke-linecap: butt; stroke-dashoffset: 0; stroke-linejoin: miter; stroke-miterlimit: 4; is-custom-font: none; font-file-url: none; fill: rgb(51,148,65); fill-rule: nonzero; opacity: 1;" vector-effect="non-scaling-stroke" transform=" translate(-256, -256)" d="M 405.2 232.9 L 126.8 67.2 c -3.4 -2 -6.9 -3.2 -10.9 -3.2 c -10.9 0 -19.8 9 -19.8 20 H 96 v 344 h 0.1 c 0 11 8.9 20 19.8 20 c 4.1 0 7.5 -1.4 11.2 -3.4 l 278.1 -165.5 c 6.6 -5.5 10.8 -13.8 10.8 -23.1 C 416 246.7 411.8 238.5 405.2 232.9 z" stroke-linecap="round"/>
</g>
</svg>