<svg width="27" height="27" viewBox="0 0 27 27" fill="none" xmlns="http://www.w3.org/2000/svg">
<g clip-path="url(#clip0_9_8)">
<g clip-path="url(#clip1_9_8)">
<path d="M4 7.99998V14H8L13 19V2.99998L8 7.99998H4ZM17.5 11C17.5 9.22998 16.48 7.70998 15 6.96998V15.02C16.48 14.29 17.5 12.77 17.5 11ZM15 2.22998V4.28998C17.89 5.14998 20 7.82998 20 11C20 14.17 17.89 16.85 15 17.71V19.77C19.01 18.86 22 15.28 22 11C22 6.71998 19.01 3.13998 15 2.22998Z" fill="#1E1E54"/>
</g>
<path d="M19.0345 15.8965C16.2745 15.8965 14.0345 18.1365 14.0345 20.8965C14.0345 23.6565 16.2745 25.8965 19.0345 25.8965C21.7945 25.8965 24.0345 23.6565 24.0345 20.8965C24.0345 18.1365 21.7945 15.8965 19.0345 15.8965ZM21.5345 21.3965H16.5345V20.3965H21.5345V21.3965Z" fill="#E73A46"/>
</g>
<defs>
<clipPath id="clip0_9_8">
<rect width="27" height="27" fill="white"/>
</clipPath>
<clipPath id="clip1_9_8">
<rect width="24" height="24" fill="white" transform="translate(1 -1)"/>
</clipPath>
</defs>
</svg>
