<svg xmlns="http://www.w3.org/2000/svg" xmlns:xlink="http://www.w3.org/1999/xlink" version="1.1" width="32" height="32" viewBox="0 0 1000 1000" xml:space="preserve">
<g transform="matrix(32.3657 0 0 32.5798 500.0004 488.0372)" id="342609" clip-path="url(#CLIPPATH_8)">
<clipPath id="CLIPPATH_8">
	<rect transform="matrix(1 0 0 1 0 0)" id="clip0_24_11608" x="-16" y="-16" rx="0" ry="0" width="32" height="32"/>
</clipPath>
<path style="stroke: none; stroke-width: 1; stroke-dasharray: none; stroke-linecap: butt; stroke-dashoffset: 0; stroke-linejoin: miter; stroke-miterlimit: 4; is-custom-font: none; font-file-url: none; fill: rgb(30,30,84); fill-rule: nonzero; opacity: 1;" vector-effect="non-scaling-stroke" transform=" translate(-16, -16)" d="M 4 12 V 20 H 9.33333 L 16 26.6666 V 5.33331 L 9.33333 12 H 4 Z M 22 16 C 22 13.64 20.64 11.6133 18.6667 10.6266 V 21.36 C 20.64 20.3866 22 18.36 22 16 Z M 18.6667 4.30664 V 7.05331 C 22.52 8.19997 25.3333 11.7733 25.3333 16 C 25.3333 20.2266 22.52 23.8 18.6667 24.9466 V 27.6933 C 24.0133 26.48 28 21.7066 28 16 C 28 10.2933 24.0133 5.51997 18.6667 4.30664 Z" stroke-linecap="round"/>
</g>
<g transform="matrix(18.4159 0 0 18.4159 855.116 884.116)" id="341681">
<path style="stroke: none; stroke-width: 1; stroke-dasharray: none; stroke-linecap: butt; stroke-dashoffset: 0; stroke-linejoin: miter; stroke-miterlimit: 4; is-custom-font: none; font-file-url: none; fill: rgb(231,58,70); fill-rule: nonzero; opacity: 1;" vector-effect="non-scaling-stroke" transform=" translate(-12, -12)" d="M 16 6 H 8 C 6.9 6 6 6.9 6 8 v 8 c 0 1.1 0.9 2 2 2 h 8 c 1.1 0 2 -0.9 2 -2 V 8 C 18 6.9 17.1 6 16 6 z" stroke-linecap="round"/>
</g>
</svg>