<svg width="24" height="24" viewBox="0 0 24 24" fill="none" xmlns="http://www.w3.org/2000/svg">
<path fill-rule="evenodd" clip-rule="evenodd" d="M6.50012 6C8.08619 4.67838 9.86926 3.99887 12.181 4C14.3733 4.00107 16.4392 4.67348 17.966 5.98992C19.5026 7.31477 20.4568 9.2622 20.4568 11.724C20.4568 13.6959 19.4886 15.2538 18.3892 16.3464C18.0488 16.6846 17.6907 16.9836 17.3365 17.2413H20.0955V20H12.923V16.9876L13.1156 16.8224C14.0776 15.9979 17.3365 15.8236 17.3365 11.724C17.3365 8.27967 15.1302 5.98992 12.181 5.98992C10.2361 5.98992 6.94983 7.5 6.94983 11.6333C7.34203 15.2912 10.1991 16.1212 11.0607 16.8105L11.2678 16.9761L11.2677 20H3.54346V17.2413H6.76931C6.37322 16.8962 5.94874 16.4818 5.54263 16.0191C4.53238 14.8679 3.76953 13.3121 3.76953 11.724C3.76953 9.28667 4.90366 7.33027 6.50012 6Z" fill="#1E1E54"/>
</svg>
