<svg width="24" height="24" viewBox="0 0 24 24" fill="none" xmlns="http://www.w3.org/2000/svg">
<path d="M8.82378 5.36686C8.82378 3.61796 10.2415 2.2002 11.9905 2.2002C13.7394 2.2002 15.1571 3.61796 15.1571 5.36686V9.58908C15.1571 11.338 13.7394 12.7558 11.9905 12.7558C10.2415 12.7558 8.82378 11.338 8.82378 9.58908V5.36686Z" fill="#1E1E54"/>
<path d="M13.046 16.9031C16.6268 16.391 19.3793 13.3115 19.3793 9.58908C19.3793 9.00612 18.9068 8.53353 18.3238 8.53353C17.7408 8.53353 17.2682 9.00612 17.2682 9.58908C17.2682 12.5039 14.9053 14.8669 11.9905 14.8669C9.07561 14.8669 6.71267 12.5039 6.71267 9.58908C6.71267 9.00612 6.24009 8.53353 5.65712 8.53353C5.07415 8.53353 4.60156 9.00612 4.60156 9.58908C4.60156 13.3115 7.35414 16.391 10.9349 16.9031V19.0891H7.76823C7.18526 19.0891 6.71267 19.5617 6.71267 20.1446C6.71267 20.7276 7.18526 21.2002 7.76823 21.2002H16.2127C16.7956 21.2002 17.2682 20.7276 17.2682 20.1446C17.2682 19.5617 16.7956 19.0891 16.2127 19.0891H13.046V16.9031Z" fill="#1E1E54"/>
</svg>
