<svg width="32" height="36" viewBox="0 0 32 36" fill="none" xmlns="http://www.w3.org/2000/svg">
<path d="M31.804 0H29.105V35.982H31.804V0Z" fill="white"/>
<path d="M31.804 0H29.105V35.973H31.804V0Z" fill="white"/>
<path fill-rule="evenodd" clip-rule="evenodd" d="M8.61297 15.994C9.47697 15.994 10.187 16.705 10.187 17.568C10.187 18.432 9.47597 19.142 8.61297 19.142C7.74897 19.142 7.03897 18.431 7.03897 17.568C7.03897 16.705 7.74097 15.994 8.61297 15.994ZM22.916 15.994C23.78 15.994 24.49 16.705 24.49 17.568C24.49 18.432 23.779 19.142 22.916 19.142C22.052 19.142 21.342 18.431 21.342 17.568C21.342 16.705 22.052 15.994 22.916 15.994ZM12.013 36V33.301H3.01797V2.699H12.013V0H3.01797H0.31897V2.699V33.302V35.974V35.983V36H12.013ZM26.406 0V2.699H17.41V33.302H26.406V36H14.712V35.982V35.973V33.301V2.699V0H17.411H26.406Z" fill="white"/>
</svg>
