<svg width="20" height="38" viewBox="0 0 20 38" fill="none" xmlns="http://www.w3.org/2000/svg">
<path d="M12.259 35.467C12.259 36.565 11.37 37.454 10.272 37.454C9.174 37.454 8.285 36.565 8.285 35.467C8.285 34.369 9.174 33.48 10.272 33.48C11.37 33.48 12.259 34.369 12.259 35.467Z" fill="white"/>
<path fill-rule="evenodd" clip-rule="evenodd" d="M16.434 18.206L16.443 18.215C10.764 23.084 11.49 26.688 11.415 28.326V31.315H9.022V26.669C9.022 26.669 9.022 23.624 11.191 20.645C12.038 19.49 14.068 17.461 14.087 17.442C16.629 14.798 17.588 13.122 17.551 10.524C17.486 6.35299 14.05 3.02899 9.888 3.10299C5.708 3.16799 2.384 6.60399 2.458 10.775L0.0650016 10.803C-0.0189984 5.31899 4.357 0.802991 9.841 0.709991C15.325 0.625991 19.841 5.00199 19.934 10.486C19.981 13.578 18.622 16.362 16.434 18.206Z" fill="white"/>
</svg>
