<svg width="38" height="36" viewBox="0 0 38 36" fill="none" xmlns="http://www.w3.org/2000/svg">
<path d="M8.60103 21.774H6.09003V36H32.032V21.774H29.521V33.49H8.60103V21.774Z" fill="white"/>
<path d="M0.710022 18.343L19.053 0L19.061 0.00799942L19.07 0L37.413 18.343L35.63 20.117L19.061 3.548L2.49202 20.117L0.710022 18.343Z" fill="white"/>
<path fill-rule="evenodd" clip-rule="evenodd" d="M19.12 18.829C16.114 18.829 13.681 21.263 13.681 24.268V30.603H11.171V24.268C11.171 19.876 14.729 16.318 19.121 16.318C23.513 16.318 27.071 19.876 27.071 24.268V30.603H24.561V24.268C24.559 21.262 22.125 18.829 19.12 18.829Z" fill="white"/>
</svg>
