<svg xmlns="http://www.w3.org/2000/svg" id="Layer_1" version="1.1" viewBox="0 0 720 667">
    <!-- Generator: Adobe Illustrator 29.6.1, SVG Export Plug-In . SVG Version: 2.1.1 Build 9)  -->
    <path d="M360,0l-177.8,193.2,177.8,87.4,177.8-87.4L360,0ZM230.2,182.8l126.4-134.4-.8,193.4-125.6-59.1Z" fill="#fff"/>
    <path d="M536.9,241.9l-177.9,87.3-177.9-87.3-92.4,98.4,270.3,135.9,270.3-135.9-92.4-98.4ZM356.6,444.7l-224.3-107.4,56.6-63,169.9,85.2-2.2,85.2Z" fill="#fff"/>
    <path d="M628.9,392.3l-268.9,130.8L91.1,392.3,0,490.7l360,176.3,360-176.3-91.1-98.4ZM358.2,631.9L46.4,482.7l53.8-58.8,259.7,130.6-1.8,77.4Z" fill="#fff"/>
  </svg>
