<svg width="42" height="36" viewBox="0 0 42 36" fill="none" xmlns="http://www.w3.org/2000/svg">
<path fill-rule="evenodd" clip-rule="evenodd" d="M41.698 4.79799C38.021 1.56899 34.184 0.109988 29.623 0.569988C26.463 0.891988 23.488 2.09799 21.006 4.10899C18.524 2.10999 15.526 0.891988 12.377 0.569988C7.804 0.109988 3.967 1.56999 0.302002 4.79799L0.348001 4.83199H0.302002V31.867H0.313002L0.302002 31.878L2.209 33.423C5.242 30.757 8.804 30.246 12.055 30.58C14.387 30.81 16.697 31.433 18.707 33.099C18.719 33.099 18.719 33.099 18.73 33.111C19.534 33.8 20.281 34.582 20.982 35.489V35.501C20.982 35.513 20.982 35.513 20.993 35.513L21.016 35.501V35.49C21.705 34.582 22.452 33.801 23.256 33.112C23.268 33.1 23.268 33.1 23.279 33.1C25.29 31.434 27.61 30.81 29.931 30.581C33.194 30.248 36.756 30.759 39.777 33.424L41.696 31.879C41.684 31.868 41.684 31.868 41.673 31.856H41.696V4.79799H41.698ZM12.377 28.651C8.953 28.306 5.506 29.042 2.45 30.788V5.63599C5.426 3.11999 8.884 2.17799 12.055 2.49899C14.387 2.72899 17.105 3.64799 19.115 5.31399C19.127 5.31399 19.127 5.31399 19.138 5.32499C19.414 5.55499 19.678 5.79599 19.931 6.05999V31.132C17.783 29.754 14.928 28.915 12.377 28.651ZM29.623 28.651C27.061 28.915 24.217 29.754 22.057 31.156V6.06099C22.31 5.79699 22.861 5.31399 22.873 5.31399C24.884 3.64799 27.612 2.72899 29.933 2.49899C33.116 2.17699 36.585 3.13099 39.55 5.64699V30.788C36.493 29.042 33.035 28.306 29.623 28.651Z" fill="white"/>
<path d="M36.942 14.062V15.59C33.668 12.373 28.382 12.396 25.131 15.647L25.096 15.613V14.131C28.543 11.374 33.472 11.339 36.942 14.062Z" fill="white"/>
<path d="M36.942 8.56198V10.09C33.668 6.87298 28.382 6.89597 25.131 10.147L25.096 10.113V8.63098C28.543 5.87398 33.472 5.83898 36.942 8.56198Z" fill="white"/>
<path d="M36.942 19.563V21.091C33.668 17.874 28.382 17.897 25.131 21.148L25.096 21.114V19.632C28.543 16.874 33.472 16.84 36.942 19.563Z" fill="white"/>
<path d="M36.942 25.063V26.591C33.668 23.374 28.382 23.397 25.131 26.648L25.096 26.614V25.132C28.543 22.375 33.472 22.34 36.942 25.063Z" fill="white"/>
</svg>
