<svg width="29" height="36" viewBox="0 0 29 36" fill="none" xmlns="http://www.w3.org/2000/svg">
<path d="M25.673 4.368L23.705 2.4L21.305 0H0.47998V35.998H28.073V6.768L25.673 4.368ZM25.673 33.598H2.87998V2.4H20.07L25.673 8.003V33.598Z" fill="white"/>
<path d="M8.162 6.28C8.669 6.28 9.082 6.693 9.082 7.2C9.082 7.707 8.669 8.12 8.162 8.12C7.655 8.12 7.242 7.707 7.242 7.2C7.242 6.693 7.654 6.28 8.162 6.28ZM8.162 5.78C7.378 5.78 6.742 6.416 6.742 7.2C6.742 7.984 7.378 8.62 8.162 8.62C8.946 8.62 9.582 7.984 9.582 7.2C9.582 6.416 8.946 5.78 8.162 5.78Z" fill="white"/>
<path d="M14.186 6.28C14.693 6.28 15.106 6.693 15.106 7.2C15.106 7.707 14.693 8.12 14.186 8.12C13.679 8.12 13.266 7.707 13.266 7.2C13.266 6.693 13.679 6.28 14.186 6.28ZM14.186 5.78C13.402 5.78 12.766 6.416 12.766 7.2C12.766 7.984 13.402 8.62 14.186 8.62C14.97 8.62 15.606 7.984 15.606 7.2C15.606 6.416 14.971 5.78 14.186 5.78Z" fill="white"/>
<path d="M20.211 8.62C20.9953 8.62 21.631 7.98424 21.631 7.2C21.631 6.41575 20.9953 5.78 20.211 5.78C19.4268 5.78 18.791 6.41575 18.791 7.2C18.791 7.98424 19.4268 8.62 20.211 8.62Z" fill="white"/>
<path d="M8.162 13.308C8.669 13.308 9.082 13.721 9.082 14.228C9.082 14.735 8.669 15.148 8.162 15.148C7.655 15.148 7.242 14.735 7.242 14.228C7.242 13.721 7.654 13.308 8.162 13.308ZM8.162 12.808C7.378 12.808 6.742 13.444 6.742 14.228C6.742 15.012 7.378 15.648 8.162 15.648C8.946 15.648 9.582 15.012 9.582 14.228C9.582 13.444 8.946 12.808 8.162 12.808Z" fill="white"/>
<path d="M14.186 15.648C14.9702 15.648 15.606 15.0122 15.606 14.228C15.606 13.4438 14.9702 12.808 14.186 12.808C13.4017 12.808 12.766 13.4438 12.766 14.228C12.766 15.0122 13.4017 15.648 14.186 15.648Z" fill="white"/>
<path d="M20.211 13.308C20.718 13.308 21.131 13.721 21.131 14.228C21.131 14.735 20.718 15.148 20.211 15.148C19.704 15.148 19.291 14.735 19.291 14.228C19.291 13.721 19.704 13.308 20.211 13.308ZM20.211 12.808C19.427 12.808 18.791 13.444 18.791 14.228C18.791 15.012 19.427 15.648 20.211 15.648C20.995 15.648 21.631 15.012 21.631 14.228C21.631 13.444 20.995 12.808 20.211 12.808Z" fill="white"/>
<path d="M8.162 22.677C8.94625 22.677 9.582 22.0412 9.582 21.257C9.582 20.4728 8.94625 19.837 8.162 19.837C7.37776 19.837 6.742 20.4728 6.742 21.257C6.742 22.0412 7.37776 22.677 8.162 22.677Z" fill="white"/>
<path d="M14.186 20.337C14.693 20.337 15.106 20.75 15.106 21.257C15.106 21.764 14.693 22.177 14.186 22.177C13.679 22.177 13.266 21.764 13.266 21.257C13.266 20.75 13.679 20.337 14.186 20.337ZM14.186 19.837C13.402 19.837 12.766 20.473 12.766 21.257C12.766 22.041 13.402 22.677 14.186 22.677C14.97 22.677 15.606 22.041 15.606 21.257C15.606 20.473 14.971 19.837 14.186 19.837Z" fill="white"/>
<path d="M20.211 20.337C20.718 20.337 21.131 20.75 21.131 21.257C21.131 21.764 20.718 22.177 20.211 22.177C19.704 22.177 19.291 21.764 19.291 21.257C19.291 20.75 19.704 20.337 20.211 20.337ZM20.211 19.837C19.427 19.837 18.791 20.473 18.791 21.257C18.791 22.041 19.427 22.677 20.211 22.677C20.995 22.677 21.631 22.041 21.631 21.257C21.631 20.473 20.995 19.837 20.211 19.837Z" fill="white"/>
<path d="M8.162 27.366C8.669 27.366 9.082 27.779 9.082 28.286C9.082 28.793 8.669 29.206 8.162 29.206C7.655 29.206 7.242 28.793 7.242 28.286C7.242 27.779 7.654 27.366 8.162 27.366ZM8.162 26.866C7.378 26.866 6.742 27.502 6.742 28.286C6.742 29.07 7.378 29.706 8.162 29.706C8.946 29.706 9.582 29.07 9.582 28.286C9.582 27.502 8.946 26.866 8.162 26.866Z" fill="white"/>
<path d="M14.186 29.706C14.9702 29.706 15.606 29.0702 15.606 28.286C15.606 27.5018 14.9702 26.866 14.186 26.866C13.4017 26.866 12.766 27.5018 12.766 28.286C12.766 29.0702 13.4017 29.706 14.186 29.706Z" fill="white"/>
<path d="M20.211 27.366C20.718 27.366 21.131 27.779 21.131 28.286C21.131 28.793 20.718 29.206 20.211 29.206C19.704 29.206 19.291 28.793 19.291 28.286C19.291 27.779 19.704 27.366 20.211 27.366ZM20.211 26.866C19.427 26.866 18.791 27.502 18.791 28.286C18.791 29.07 19.427 29.706 20.211 29.706C20.995 29.706 21.631 29.07 21.631 28.286C21.631 27.502 20.995 26.866 20.211 26.866Z" fill="white"/>
</svg>
