<svg width="37" height="38" viewBox="0 0 37 38" fill="none" xmlns="http://www.w3.org/2000/svg">
<path d="M31.214 10.767H17.921V12.782H31.214V10.767Z" fill="white"/>
<path d="M31.214 18.263H17.921V20.278H31.214V18.263Z" fill="white"/>
<path d="M16.304 8.239L9.44799 15.03L9.43999 15.022L9.43099 15.03L5.38199 10.972L6.86199 9.491L9.44799 12.084L14.823 6.75L16.304 8.239Z" fill="white"/>
<path fill-rule="evenodd" clip-rule="evenodd" d="M23.6 26.7V28.79H36.08L36.07 0H4.74C2.16 0 0.0599976 2.09 0.0599976 4.68V28.72H2.16V5.17H33.98V26.7H23.6ZM23.87 3.75C23.26 3.75 22.76 3.24 22.76 2.64C22.76 2.03 23.26 1.53 23.87 1.53C24.48 1.53 24.98 2.02 24.98 2.64C24.98 3.24 24.48 3.75 23.87 3.75ZM28.31 3.75C27.7 3.75 27.2 3.24 27.2 2.64C27.2 2.03 27.7 1.53 28.31 1.53C28.92 1.53 29.42 2.02 29.42 2.64C29.42 3.24 28.92 3.75 28.31 3.75ZM32.75 3.75C32.14 3.75 31.64 3.24 31.64 2.64C31.64 2.03 32.14 1.53 32.75 1.53C33.36 1.53 33.86 2.02 33.86 2.64C33.86 3.24 33.36 3.75 32.75 3.75Z" fill="white"/>
<path fill-rule="evenodd" clip-rule="evenodd" d="M20.057 24.545C19.465 24.545 18.985 25.025 18.985 25.617V28.022H18.158V24.51C18.158 23.837 17.567 23.291 16.837 23.291C16.107 23.291 15.516 23.837 15.516 24.51V28.023H14.689V23.756C14.689 23.083 14.065 22.537 13.296 22.537C12.526 22.537 11.903 23.083 11.903 23.756V28.023H11.074V18.017C11.074 17.344 10.438 16.798 9.65299 16.798C8.86799 16.798 8.23199 17.344 8.23199 18.017V28.023C8.23199 28.023 8.23199 29.3 7.14699 28.885C7.14699 27.435 6.06699 26.205 4.57699 25.785C4.00699 25.625 3.44699 26.075 3.44699 26.665C3.44699 27.035 3.67699 27.385 4.03699 27.505C4.67699 27.715 5.12699 28.255 5.12699 28.885V32.365C5.12699 35.445 7.93699 37.945 11.407 37.995H14.837C18.327 37.955 21.127 35.445 21.127 32.365V29.3H21.131V25.618C21.129 25.025 20.649 24.545 20.057 24.545Z" fill="white"/>
</svg>
