<svg width="37" height="37" viewBox="0 0 37 37" fill="none" xmlns="http://www.w3.org/2000/svg">
<path fill-rule="evenodd" clip-rule="evenodd" d="M15.109 7.64799C15.109 11.819 11.729 15.199 7.55799 15.199C3.38699 15.199 0.00698853 11.828 0.00698853 7.65698H2.39099C2.39099 10.506 4.69999 12.815 7.55799 12.815C10.407 12.815 12.725 10.497 12.725 7.64799C12.725 4.78999 10.407 2.48099 7.55799 2.48099V0.0969849C11.729 0.0969849 15.109 3.47699 15.109 7.64799Z" fill="white"/>
<path d="M31.293 32.686C32.0612 32.686 32.684 32.0632 32.684 31.295C32.684 30.5268 32.0612 29.904 31.293 29.904C30.5247 29.904 29.902 30.5268 29.902 31.295C29.902 32.0632 30.5247 32.686 31.293 32.686Z" fill="white"/>
<path d="M14.7557 13.0739L13.0714 14.7582L20.1119 21.7988L21.7963 20.1145L14.7557 13.0739Z" fill="white"/>
<path d="M18.9188 22.991L17.2345 24.6753L28.5898 36.0306L30.2741 34.3463L18.9188 22.991Z" fill="white"/>
<path d="M24.7999 17.1105L23.1156 18.7948L34.4709 30.1501L36.1552 28.4658L24.7999 17.1105Z" fill="white"/>
</svg>
