<svg width="44" height="36" viewBox="0 0 44 36" fill="none" xmlns="http://www.w3.org/2000/svg">
<path fill-rule="evenodd" clip-rule="evenodd" d="M13.657 18.504V23.984H11.12V18.504C11.12 16.215 9.28699 14.382 7.03699 14.382C4.78799 14.382 2.94499 16.215 2.94499 18.504V23.984H0.40799V18.504C0.40799 14.828 3.36099 11.835 7.03699 11.835C10.704 11.835 13.657 14.828 13.657 18.504Z" fill="white"/>
<path fill-rule="evenodd" clip-rule="evenodd" d="M1.95798 5.08801C1.95798 2.28601 4.22998 0.0140076 7.03198 0.0140076C9.83398 0.0140076 12.106 2.28601 12.106 5.08801C12.106 7.89001 9.83398 10.162 7.03198 10.162C4.22998 10.162 1.95798 7.89001 1.95798 5.08801ZM7.03198 2.55101C5.63098 2.55101 4.49498 3.68701 4.49498 5.08801C4.49498 6.48901 5.63098 7.62501 7.03198 7.62501C8.43298 7.62501 9.56898 6.48901 9.56898 5.08801C9.56898 3.68701 8.43398 2.55101 7.03198 2.55101Z" fill="white"/>
<path fill-rule="evenodd" clip-rule="evenodd" d="M43.592 18.504V23.984H41.055V18.504C41.055 16.215 39.222 14.382 36.972 14.382C34.723 14.382 32.88 16.215 32.88 18.504V23.984H30.343V18.504C30.343 14.828 33.296 11.835 36.972 11.835C40.639 11.835 43.592 14.828 43.592 18.504Z" fill="white"/>
<path fill-rule="evenodd" clip-rule="evenodd" d="M31.893 5.08801C31.893 2.28601 34.165 0.0140076 36.967 0.0140076C39.769 0.0140076 42.041 2.28601 42.041 5.08801C42.041 7.89001 39.769 10.162 36.967 10.162C34.165 10.162 31.893 7.89001 31.893 5.08801ZM36.968 2.55101C35.567 2.55101 34.431 3.68701 34.431 5.08801C34.431 6.48901 35.567 7.62501 36.968 7.62501C38.369 7.62501 39.505 6.48901 39.505 5.08801C39.505 3.68701 38.369 2.55101 36.968 2.55101Z" fill="white"/>
<path fill-rule="evenodd" clip-rule="evenodd" d="M21.906 7.92401C17.982 7.92401 14.791 11.115 14.791 15.039C14.791 18.973 17.982 22.154 21.906 22.154C25.84 22.154 29.031 18.973 29.031 15.039C29.03 11.115 25.84 7.92401 21.906 7.92401ZM21.906 19.617C19.379 19.617 17.328 17.576 17.328 15.039C17.328 12.512 19.379 10.461 21.906 10.461C24.443 10.461 26.494 12.512 26.494 15.039C26.494 17.576 24.443 19.617 21.906 19.617Z" fill="white"/>
<path fill-rule="evenodd" clip-rule="evenodd" d="M34.153 35.987H31.616C31.616 30.626 27.276 26.286 21.905 26.286C16.544 26.286 12.204 30.626 12.204 35.987H9.66699C9.66699 29.219 15.147 23.749 21.905 23.749C28.674 23.749 34.153 29.219 34.153 35.987Z" fill="white"/>
</svg>
