<svg xmlns="http://www.w3.org/2000/svg" width="95.312" height="95.312" viewBox="0 0 95.312 95.312"><path d="M31.904 89.924V77.131a1.85 1.85 0 0 1 1.849-1.849h28.423v.006h1.333c8.453 0 15.33-6.875 15.33-15.33 0-8.451-6.877-15.329-15.33-15.329l-34.397-.025 13.302 13.25c.687.688.687 1.902 0 2.588l-8.267 8.268a1.832 1.832 0 0 1-2.588 0L.538 37.686a1.827 1.827 0 0 1 0-2.589l31.02-31.021a1.831 1.831 0 0 1 2.588 0l8.267 8.265a1.831 1.831 0 0 1 0 2.589L29.111 28.132l34.397.023c17.537 0 31.805 14.267 31.805 31.803 0 17.537-14.267 31.805-31.804 31.805l-29.756.01a1.851 1.851 0 0 1-1.849-1.849z" fill="#2a7cb4"/></svg>