<svg xmlns="http://www.w3.org/2000/svg" width="482.136" height="482.135" viewBox="0 0 482.136 482.135"><path fill="#6f6f6f" d="M455.482 198.184L326.83 326.832c-35.535 35.54-93.108 35.54-128.646 0l-42.881-42.886 42.881-42.876 42.884 42.876c11.845 11.822 31.063 11.846 42.886 0l128.645-128.644c11.816-11.831 11.816-31.066 0-42.9l-42.881-42.881c-11.822-11.814-31.064-11.814-42.887 0l-45.929 45.936c-21.292-12.531-45.491-17.905-69.449-16.291l72.5-72.526c35.535-35.521 93.137-35.521 128.645 0l42.887 42.881c35.532 35.524 35.532 93.142-.003 128.663zM201.206 366.698l-45.903 45.899c-11.845 11.847-31.064 11.817-42.881 0l-42.884-42.881c-11.845-11.821-11.845-31.041 0-42.886l128.646-128.648c11.819-11.814 31.069-11.814 42.884 0l42.887 42.886 42.875-42.886-42.875-42.881c-35.541-35.521-93.114-35.521-128.65 0L26.655 283.946c-35.538 35.545-35.538 93.146 0 128.651l42.883 42.883c35.51 35.539 93.11 35.539 128.646 0l72.496-72.499c-23.956 1.597-48.092-3.784-69.474-16.283z"/><path fill="#AD1F1F" d="M359.803 240.401c-65.633 0-119.333 53.7-119.333 119.333s53.7 119.333 119.333 119.333 119.333-53.7 119.333-119.333-53.7-119.333-119.333-119.333zm59.667 131.267H300.137v-23.867H419.47v23.867z"/></svg>