<svg width="25" height="32" viewBox="0 0 25 32" fill="none" xmlns="http://www.w3.org/2000/svg">
<path d="M21.3629 24.792C20.6974 24.792 20.0469 24.9879 19.4937 25.3548C18.9405 25.7217 18.5095 26.2432 18.2552 26.8532C18.0009 27.4633 17.9348 28.1344 18.0652 28.7818C18.1956 29.4291 18.5167 30.0235 18.9878 30.4897C19.4589 30.956 20.0589 31.2731 20.7118 31.4009C21.3647 31.5287 22.0411 31.4615 22.6554 31.2078C23.2698 30.954 23.7944 30.5252 24.163 29.9756C24.5315 29.4259 24.7274 28.7801 24.7258 28.12C24.7258 27.6823 24.6388 27.2489 24.4697 26.8446C24.3006 26.4403 24.0527 26.0731 23.7403 25.7639C23.428 25.4548 23.0572 25.2098 22.6492 25.043C22.2413 24.8763 21.8041 24.7909 21.3629 24.792" fill="#E73A46"/>
<path d="M24.2016 0H18.5242V21.176H24.2016V0Z" fill="#E73A46"/>
<path d="M9.55645 25.8719C9.03215 25.8733 8.51295 25.7698 8.02984 25.5678C7.54672 25.3657 7.1096 25.0692 6.74455 24.6958C6.3795 24.3225 6.09402 23.88 5.90513 23.3949C5.71624 22.9097 5.62783 22.3917 5.64516 21.8719V0.55191H0V20.7439V21.9039C0 23.1646 0.250314 24.4129 0.73665 25.5777C1.22299 26.7424 1.93582 27.8007 2.83445 28.6921C3.73308 29.5836 4.79991 30.2907 5.97403 30.7732C7.14815 31.2556 8.40656 31.5039 9.67742 31.5039H16.129V25.9039L9.55645 25.8719Z" fill="white"/>
</svg>
