<svg width="100" height="32" viewBox="0 0 100 32" fill="none" xmlns="http://www.w3.org/2000/svg">
<path d="M54.7661 23.5999H53.7016V18.5199H54.7661C55.6716 18.5611 56.5759 18.4163 57.4223 18.0945C58.2688 17.7727 59.0391 17.281 59.6849 16.6501C60.3308 16.0191 60.8383 15.2626 61.1756 14.428C61.5129 13.5934 61.6728 12.6987 61.6452 11.7999L61.6935 10.4079H67.2258V11.8399C67.2182 13.314 66.914 14.7717 66.331 16.1276C65.748 17.4835 64.8979 18.7102 63.8306 19.7359C61.4251 22.1362 58.1771 23.5207 54.7661 23.5999Z" fill="white"/>
<path d="M62.0645 31.4959L62.0161 30.1199C61.8387 26.5679 60.2742 23.4479 54.8226 23.5999L52.3145 24.1519V18.5519H55.2984C58.8871 18.3039 67.75 21.1839 67.75 30.3679V31.5279L62.0645 31.4959Z" fill="white"/>
<path d="M76.758 0.551941H70.9274V31.5679H76.758V0.551941Z" fill="#E73A46"/>
<path d="M90.2339 16.0079V10.4079H86.2016V2.6319H80.5161V22.6879C80.7269 25.0955 81.8357 27.3384 83.6256 28.9778C85.4154 30.6172 87.7575 31.5351 90.1935 31.5519V25.9519C89.2066 25.9597 88.251 25.6081 87.5079 24.9638C86.7647 24.3195 86.2856 23.4272 86.1613 22.4559V16.0079H90.2339Z" fill="#E73A46"/>
<path d="M36.5484 9.82391C30.8387 9.82391 26.871 13.8239 26.871 19.4239V31.5039H32.5161V19.4239V19.1199C32.5161 16.7199 34.2823 15.4239 36.4758 15.4239C38.6694 15.4239 40.4274 16.7599 40.3871 19.1199V31.5039H46.0323V19.9199C46.1532 14.1759 42.2339 9.82391 36.5484 9.82391Z" fill="white"/>
<path d="M96.2339 25.3439C95.5684 25.3439 94.9179 25.5398 94.3647 25.9067C93.8115 26.2736 93.3805 26.7951 93.1262 27.4052C92.8719 28.0152 92.8058 28.6864 92.9362 29.3337C93.0666 29.981 93.3877 30.5755 93.8588 31.0417C94.3299 31.5079 94.9299 31.825 95.5828 31.9528C96.2356 32.0806 96.912 32.0134 97.5264 31.7597C98.1407 31.506 98.6654 31.0772 99.0339 30.5275C99.4025 29.9778 99.5984 29.3321 99.5968 28.6719C99.5968 28.2342 99.5097 27.8008 99.3406 27.3965C99.1715 26.9922 98.9237 26.625 98.6113 26.3159C98.2989 26.0067 97.9281 25.7617 97.5202 25.595C97.1122 25.4282 96.6751 25.3429 96.2339 25.3439Z" fill="#E73A46"/>
<path d="M9.55645 25.8719C9.03216 25.8733 8.51295 25.7699 8.02984 25.5678C7.54672 25.3657 7.1096 25.0692 6.74455 24.6959C6.3795 24.3225 6.09402 23.8801 5.90513 23.3949C5.71624 22.9097 5.62783 22.3918 5.64516 21.8719V0.551941H0V20.7439V21.9039C0 23.1646 0.250314 24.413 0.73665 25.5777C1.22299 26.7424 1.93582 27.8007 2.83445 28.6922C3.73308 29.5836 4.79991 30.2907 5.97403 30.7732C7.14815 31.2556 8.40656 31.5039 9.67742 31.5039H16.129V25.9039L9.55645 25.8719Z" fill="white"/>
<path d="M24.1774 10.3679H18.5V31.5439H24.1774V10.3679Z" fill="white"/>
<path d="M99.0726 0.551941H93.3951V21.7279H99.0726V0.551941Z" fill="#E73A46"/>
<path d="M21.371 6.67192C22.0354 6.66717 22.6835 6.46729 23.2335 6.0975C23.7835 5.72771 24.2108 5.20459 24.4614 4.59415C24.7119 3.98371 24.7746 3.31331 24.6415 2.66756C24.5084 2.02182 24.1854 1.42966 23.7133 0.965834C23.2413 0.502006 22.6413 0.187291 21.9891 0.0614091C21.3369 -0.0644733 20.6617 0.00411844 20.0488 0.258528C19.4358 0.512937 18.9126 0.941761 18.5451 1.49088C18.1776 2.04 17.9823 2.6848 17.9839 3.34392C17.9839 3.78366 18.0717 4.21905 18.2423 4.62492C18.4129 5.03079 18.6629 5.3991 18.9779 5.70855C19.2928 6.01801 19.6665 6.26248 20.0772 6.42783C20.488 6.59318 20.9277 6.67614 21.371 6.67192Z" fill="white"/>
<path d="M54.8468 0.551941H49.1694V31.5039H54.8468V0.551941Z" fill="white"/>
</svg>
